<?xml version="1.0" encoding="utf-8"?>
<!-- Generator: Adobe Illustrator 28.3.0, SVG Export Plug-In . SVG Version: 6.00 Build 0)  -->
<svg version="1.1" id="Capa_1" xmlns="http://www.w3.org/2000/svg" xmlns:xlink="http://www.w3.org/1999/xlink" x="0px" y="0px"
	 viewBox="0 0 162.2 41.7" style="enable-background:new 0 0 162.2 41.7;" xml:space="preserve">
<style type="text/css">
	.st0{fill:#D61D00;}
	.st1{fill:#4E4E4E;}
	.st2{fill:#ABABAB;}
</style>
<g>
	<g>
		<path class="st0" d="M15.2,4.9v4.2H5.5v5.5H13v4.1H5.5v5.6h9.7v4.2H0V4.9H15.2z"/>
		<path class="st0" d="M30.5,19.1c0.2,0.4,0.4,0.9,0.6,1.4c0.2-0.5,0.4-0.9,0.6-1.4c0.2-0.5,0.4-0.9,0.6-1.3l6.1-11.9
			c0.1-0.2,0.2-0.4,0.3-0.5S39,5.1,39.1,5S39.4,5,39.6,5s0.4,0,0.6,0h4.2v23.6h-4.8V15c0-0.7,0-1.4,0.1-2.1L33.4,25
			c-0.2,0.4-0.5,0.7-0.8,0.9s-0.7,0.3-1.1,0.3h-0.8c-0.4,0-0.8-0.1-1.1-0.3S29,25.4,28.8,25l-6.3-12.2c0,0.4,0.1,0.8,0.1,1.1
			c0,0.4,0,0.7,0,1v13.6h-4.8V5H22c0.2,0,0.5,0,0.6,0C22.8,5,23,5,23.1,5c0.1,0.1,0.3,0.1,0.4,0.2c0.1,0.1,0.2,0.3,0.3,0.5l6.1,12
			C30.1,18.2,30.4,18.6,30.5,19.1z"/>
	</g>
	<g>
		<path class="st1" d="M127.5,28.6V25l7.4-7.8c0.7-0.8,1.2-1.4,1.6-2s0.7-1.1,0.9-1.6c0.2-0.5,0.3-1,0.3-1.4c0-0.8-0.2-1.4-0.6-1.9
			c-0.4-0.5-1-0.8-1.8-0.8c-0.9,0-1.5,0.3-1.9,0.9s-0.6,1.4-0.6,2.5h-5.4l0-0.1c0-1.4,0.3-2.7,0.9-3.9c0.7-1.2,1.6-2.1,2.8-2.7
			s2.7-1,4.3-1c1.7,0,3.1,0.3,4.3,0.9c1.2,0.6,2.1,1.4,2.7,2.4s1,2.3,1,3.6c0,0.9-0.2,1.8-0.5,2.6c-0.3,0.8-0.9,1.7-1.6,2.6
			s-1.7,2-2.9,3.3l-3.5,3.7l0,0.1h4.6l0.2-1.9h4.2v6.1L127.5,28.6L127.5,28.6z"/>
	</g>
	<g>
		<path class="st1" d="M85.7,28.6V25l7.4-7.8c0.7-0.8,1.2-1.4,1.6-2s0.7-1.1,0.8-1.6c0.2-0.5,0.3-1,0.3-1.4c0-0.8-0.2-1.4-0.6-1.9
			c-0.4-0.5-1-0.8-1.8-0.8c-0.9,0-1.5,0.3-1.9,0.9s-0.6,1.4-0.6,2.5h-5.4l0-0.1c0-1.4,0.3-2.7,0.9-3.9c0.7-1.2,1.6-2.1,2.8-2.7
			s2.7-1,4.3-1s3.1,0.3,4.3,0.9c1.2,0.6,2.1,1.4,2.7,2.4s1,2.3,1,3.6c0,0.9-0.2,1.8-0.5,2.6s-0.8,1.7-1.6,2.6s-1.7,2-2.9,3.3
			L93,24.3l0,0.1h4.6l0.2-1.9h4.2v6.1L85.7,28.6L85.7,28.6z"/>
	</g>
	<path class="st1" d="M102.1,22.5h-4.2l-0.2,1.9h-4.6l0-0.1l3.5-3.7c1.2-1.3,2.2-2.4,2.9-3.3c0.7-0.9,1.3-1.8,1.6-2.6
		c0.3-0.8,0.5-1.7,0.5-2.6c0-1.4-0.3-2.6-1-3.7S99,6.6,97.8,6.1c-1.2-0.6-2.6-0.9-4.3-0.9s-3.1,0.3-4.3,1c-1.2,0.7-2.2,1.6-2.8,2.7
		c-0.7,1.1-1,2.4-0.9,3.9l0,0.1h5.4c0-1.1,0.2-1.9,0.6-2.5c0.4-0.6,1.1-0.9,1.9-0.9c0.8,0,1.4,0.3,1.8,0.8c0.4,0.5,0.6,1.2,0.6,1.9
		c0,0.4-0.1,0.9-0.3,1.4c-0.2,0.5-0.5,1-0.8,1.6s-0.9,1.2-1.6,2l-5.7,6c0,0.1,0,0.2-0.1,0.3c0,0.1,0.1,0.1,0.1,0.2
		c0.2,0.5,0.1,0.9-0.1,1.3c-0.1,0.1-0.1,0.2-0.2,0.2c-0.1,0.1-0.2,0.2-0.3,0.4c0.2,0.4,0.2,0.8,0,1.1c0,0.1-0.1,0.1-0.1,0.2
		c0.1,0.1,0.2,0.1,0.2,0.2c0.3,0.2,0.5,0.7,0.5,1c0,0.1,0,0.3-0.1,0.4H102L102.1,22.5L102.1,22.5z"/>
	<g>
		<path class="st1" d="M4.3,33.4v0.7H1.1v2.2h2.6v0.7H1.1v2.3h3.2v0.7H0.2v-6.7L4.3,33.4L4.3,33.4z"/>
		<path class="st1" d="M6.2,33.2v6.9H5.4v-6.9H6.2z"/>
		<path class="st1" d="M9.4,35.3c0.3,0,0.5,0,0.8,0.1s0.4,0.2,0.6,0.4s0.3,0.4,0.4,0.7c0.1,0.3,0.1,0.6,0.1,0.9c0,0.1,0,0.2,0,0.3
			c0,0-0.1,0.1-0.2,0.1H8.1c0,0.3,0.1,0.6,0.1,0.8s0.2,0.4,0.3,0.5c0.1,0.2,0.3,0.3,0.5,0.3c0.2,0.1,0.4,0.1,0.6,0.1
			c0.2,0,0.4,0,0.5-0.1s0.3-0.1,0.4-0.2c0.1-0.1,0.2-0.1,0.3-0.2c0.1,0,0.1-0.1,0.2-0.1c0.1,0,0.1,0,0.2,0.1l0.2,0.3
			c-0.1,0.1-0.2,0.2-0.4,0.3s-0.3,0.2-0.5,0.2s-0.3,0.1-0.5,0.1c-0.2,0-0.4,0-0.5,0c-0.3,0-0.6-0.1-0.9-0.2
			c-0.3-0.1-0.5-0.3-0.7-0.5S7.5,39,7.4,38.7c-0.1-0.3-0.2-0.7-0.2-1.1c0-0.3,0.1-0.6,0.2-0.9c0.1-0.3,0.2-0.5,0.4-0.7
			c0.2-0.2,0.4-0.4,0.7-0.5C8.8,35.3,9.1,35.3,9.4,35.3z M9.5,35.9c-0.4,0-0.7,0.1-0.9,0.3s-0.4,0.5-0.4,1h2.6c0-0.2,0-0.4-0.1-0.5
			s-0.1-0.3-0.2-0.4c-0.1-0.1-0.2-0.2-0.4-0.3C9.8,35.9,9.6,35.9,9.5,35.9z"/>
		<path class="st1" d="M15.5,36.2C15.5,36.2,15.5,36.3,15.5,36.2c-0.1,0.1-0.1,0.1-0.2,0.1c-0.1,0-0.1,0-0.1-0.1
			c-0.1,0-0.1-0.1-0.2-0.1c-0.1,0-0.2-0.1-0.3-0.1c-0.1,0-0.3-0.1-0.4-0.1c-0.2,0-0.4,0-0.6,0.1c-0.2,0.1-0.3,0.2-0.4,0.4
			c-0.1,0.2-0.2,0.3-0.3,0.6s-0.1,0.5-0.1,0.7c0,0.3,0,0.5,0.1,0.8c0.1,0.2,0.2,0.4,0.3,0.6s0.3,0.3,0.4,0.3
			c0.2,0.1,0.4,0.1,0.6,0.1c0.2,0,0.4,0,0.5-0.1s0.2-0.1,0.3-0.2s0.2-0.1,0.2-0.2c0.1,0,0.1-0.1,0.2-0.1c0.1,0,0.1,0,0.2,0.1
			l0.2,0.3c-0.2,0.2-0.5,0.4-0.8,0.5c-0.3,0.1-0.6,0.2-1,0.2c-0.3,0-0.6,0-0.8-0.2s-0.5-0.3-0.7-0.5c-0.2-0.2-0.3-0.5-0.4-0.8
			s-0.2-0.6-0.2-1c0-0.3,0.1-0.7,0.1-1c0.1-0.3,0.2-0.6,0.4-0.8c0.2-0.2,0.4-0.4,0.7-0.5c0.3-0.1,0.6-0.2,0.9-0.2
			c0.3,0,0.6,0,0.9,0.2c0.2,0.1,0.5,0.3,0.7,0.5L15.5,36.2z"/>
		<path class="st1" d="M19.8,36.2C19.7,36.2,19.7,36.3,19.8,36.2c-0.1,0.1-0.1,0.1-0.2,0.1c0,0-0.1,0-0.1-0.1s-0.1-0.1-0.2-0.1
			c-0.1,0-0.2-0.1-0.3-0.1c-0.1,0-0.3-0.1-0.4-0.1c-0.2,0-0.4,0-0.6,0.1c-0.2,0.1-0.3,0.2-0.4,0.4c-0.1,0.2-0.2,0.3-0.3,0.6
			c-0.1,0.2-0.1,0.5-0.1,0.7c0,0.3,0,0.5,0.1,0.8c0.1,0.2,0.2,0.4,0.3,0.6s0.3,0.3,0.4,0.3c0.2,0.1,0.4,0.1,0.6,0.1
			c0.2,0,0.4,0,0.5-0.1s0.2-0.1,0.3-0.2s0.2-0.1,0.2-0.2c0.1,0,0.1-0.1,0.2-0.1c0.1,0,0.1,0,0.2,0.1l0.2,0.3
			c-0.2,0.2-0.5,0.4-0.8,0.5c-0.3,0.1-0.6,0.2-1,0.2c-0.3,0-0.6,0-0.8-0.2s-0.5-0.3-0.7-0.5c-0.2-0.2-0.3-0.5-0.4-0.8
			s-0.2-0.6-0.2-1c0-0.3,0-0.7,0.1-1s0.2-0.6,0.4-0.8c0.2-0.2,0.4-0.4,0.7-0.5c0.3-0.1,0.6-0.2,1-0.2c0.3,0,0.6,0,0.9,0.2
			c0.2,0.1,0.5,0.3,0.7,0.5L19.8,36.2z"/>
		<path class="st1" d="M21.9,33.9c0,0.1,0,0.2,0,0.2c0,0.1-0.1,0.1-0.1,0.2c0,0-0.1,0.1-0.2,0.1c-0.1,0-0.1,0-0.2,0s-0.2,0-0.2,0
			s-0.1-0.1-0.2-0.1c0,0-0.1-0.1-0.1-0.2c0-0.1,0-0.2,0-0.2s0-0.2,0-0.2c0-0.1,0.1-0.1,0.1-0.2c0,0,0.1-0.1,0.2-0.1
			c0.1,0,0.1,0,0.2,0s0.2,0,0.2,0s0.1,0.1,0.2,0.1c0,0,0.1,0.1,0.1,0.2S21.9,33.8,21.9,33.9z M21.7,35.4v4.7h-0.8v-4.7H21.7z"/>
		<path class="st1" d="M24.9,35.3c0.3,0,0.7,0.1,0.9,0.2s0.5,0.3,0.7,0.5c0.2,0.2,0.3,0.5,0.5,0.8c0.1,0.3,0.2,0.6,0.2,1
			s0,0.7-0.2,1c-0.1,0.3-0.2,0.5-0.5,0.8c-0.2,0.2-0.4,0.4-0.7,0.5c-0.3,0.1-0.6,0.2-0.9,0.2S24.2,40.1,24,40
			c-0.3-0.1-0.5-0.3-0.7-0.5c-0.2-0.2-0.4-0.5-0.5-0.8c-0.1-0.3-0.2-0.6-0.2-1c0-0.4,0-0.7,0.2-1s0.3-0.6,0.5-0.8
			c0.2-0.2,0.4-0.4,0.7-0.5S24.6,35.3,24.9,35.3z M24.9,39.5c0.5,0,0.8-0.2,1-0.5c0.2-0.3,0.3-0.8,0.3-1.3s-0.1-1-0.3-1.3
			s-0.6-0.5-1-0.5c-0.2,0-0.4,0-0.6,0.1c-0.2,0.1-0.3,0.2-0.4,0.3c-0.1,0.2-0.2,0.3-0.3,0.6s-0.1,0.5-0.1,0.8s0,0.5,0.1,0.8
			s0.1,0.4,0.3,0.6s0.3,0.3,0.4,0.3C24.5,39.5,24.7,39.5,24.9,39.5z"/>
		<path class="st1" d="M28,40.1v-4.7h0.5c0.1,0,0.2,0.1,0.2,0.2l0.1,0.5c0.2-0.2,0.4-0.4,0.7-0.5c0.2-0.1,0.5-0.2,0.9-0.2
			c0.3,0,0.5,0,0.7,0.1c0.2,0.1,0.4,0.2,0.5,0.4c0.1,0.2,0.2,0.3,0.3,0.6s0.1,0.5,0.1,0.7v3h-0.8v-3c0-0.4-0.1-0.6-0.2-0.8
			s-0.4-0.3-0.8-0.3c-0.2,0-0.5,0.1-0.7,0.2c-0.2,0.1-0.4,0.3-0.6,0.5v3.5C28.9,40.1,28,40.1,28,40.1z"/>
		<path class="st1" d="M35,35.3c0.3,0,0.5,0,0.8,0.1c0.2,0.1,0.5,0.2,0.6,0.4s0.3,0.4,0.4,0.7s0.2,0.6,0.2,0.9c0,0.1,0,0.2,0,0.3
			c0,0-0.1,0.1-0.2,0.1h-3.1c0,0.3,0,0.6,0.1,0.8s0.2,0.4,0.3,0.5c0.1,0.2,0.3,0.3,0.5,0.3c0.2,0.1,0.4,0.1,0.6,0.1
			c0.2,0,0.4,0,0.5-0.1s0.3-0.1,0.4-0.2s0.2-0.1,0.3-0.2s0.1-0.1,0.2-0.1c0.1,0,0.1,0,0.2,0.1l0.2,0.3c-0.1,0.1-0.2,0.2-0.4,0.3
			S36.2,39.9,36,40s-0.3,0.1-0.5,0.1c-0.2,0-0.3,0-0.5,0c-0.3,0-0.6-0.1-0.9-0.2c-0.3-0.1-0.5-0.3-0.7-0.5S33,39,32.9,38.7
			s-0.2-0.7-0.2-1.1c0-0.3,0-0.6,0.2-0.9c0.1-0.3,0.2-0.5,0.4-0.7c0.2-0.2,0.4-0.4,0.7-0.5C34.3,35.3,34.6,35.3,35,35.3z M35,35.9
			c-0.4,0-0.7,0.1-1,0.3s-0.4,0.5-0.4,1h2.6c0-0.2,0-0.4-0.1-0.5c0-0.2-0.1-0.3-0.2-0.4c-0.1-0.1-0.2-0.2-0.4-0.3
			C35.3,35.9,35.2,35.9,35,35.9z"/>
		<path class="st1" d="M40.5,36.2c0,0.1-0.1,0.1-0.2,0.1c0,0-0.1,0-0.2,0s-0.1-0.1-0.2-0.1c-0.1,0-0.2-0.1-0.3-0.1
			c-0.1,0-0.3,0-0.4,0c-0.1,0-0.3,0-0.4,0c-0.1,0-0.2,0.1-0.3,0.2c-0.1,0.1-0.1,0.1-0.2,0.2c0,0.1-0.1,0.2-0.1,0.3
			c0,0.1,0,0.2,0.1,0.3c0.1,0.1,0.2,0.2,0.3,0.2c0.1,0.1,0.2,0.1,0.4,0.2c0.2,0,0.3,0.1,0.5,0.1s0.3,0.1,0.5,0.2
			c0.2,0.1,0.3,0.1,0.4,0.2s0.2,0.2,0.3,0.3c0.1,0.1,0.1,0.3,0.1,0.5c0,0.2,0,0.4-0.1,0.6c-0.1,0.2-0.2,0.3-0.3,0.5S40,40,39.8,40
			c-0.2,0.1-0.5,0.1-0.8,0.1c-0.3,0-0.6,0-0.9-0.2s-0.5-0.2-0.7-0.4l0.2-0.3c0,0,0-0.1,0.1-0.1c0,0,0.1,0,0.1,0c0.1,0,0.1,0,0.2,0.1
			c0.1,0,0.1,0.1,0.2,0.1s0.2,0.1,0.3,0.1c0.1,0,0.3,0.1,0.5,0.1c0.2,0,0.3,0,0.4-0.1s0.2-0.1,0.3-0.2c0.1-0.1,0.1-0.2,0.2-0.2
			c0-0.1,0.1-0.2,0.1-0.3c0-0.1,0-0.2-0.1-0.3c-0.1-0.1-0.2-0.2-0.3-0.2c-0.1-0.1-0.2-0.1-0.4-0.2c-0.2,0-0.3-0.1-0.5-0.1
			s-0.3-0.1-0.5-0.2c-0.2-0.1-0.3-0.1-0.4-0.2s-0.2-0.2-0.3-0.4s-0.1-0.3-0.1-0.5c0-0.2,0-0.3,0.1-0.5c0.1-0.2,0.2-0.3,0.3-0.4
			c0.1-0.1,0.3-0.2,0.5-0.3s0.5-0.1,0.7-0.1c0.3,0,0.6,0,0.8,0.2c0.2,0.1,0.5,0.2,0.6,0.4L40.5,36.2z"/>
		<path class="st1" d="M46.9,37.9c0,0.1,0.1,0.2,0.1,0.2c0-0.1,0.1-0.2,0.1-0.2c0-0.1,0.1-0.2,0.1-0.2l2.3-4.1
			c0-0.1,0.1-0.1,0.1-0.1c0,0,0.1,0,0.2,0h0.7v6.7h-0.8v-4.9c0-0.1,0-0.1,0-0.2s0-0.2,0-0.2l-2.3,4.2c-0.1,0.1-0.2,0.2-0.3,0.2h-0.1
			c-0.1,0-0.2-0.1-0.3-0.2l-2.3-4.2c0,0.1,0,0.2,0,0.2s0,0.2,0,0.2v4.9h-0.8v-6.7h0.7c0.1,0,0.1,0,0.2,0c0,0,0.1,0.1,0.1,0.1
			l2.3,4.1C46.8,37.8,46.9,37.8,46.9,37.9z"/>
		<path class="st1" d="M52.5,35.4v3c0,0.4,0.1,0.6,0.2,0.8s0.4,0.3,0.8,0.3c0.2,0,0.5-0.1,0.7-0.2c0.2-0.1,0.4-0.3,0.6-0.5v-3.5h0.8
			v4.7h-0.5c-0.1,0-0.2-0.1-0.2-0.2l-0.1-0.5c-0.2,0.2-0.4,0.4-0.7,0.5c-0.2,0.1-0.5,0.2-0.9,0.2c-0.3,0-0.5,0-0.7-0.1
			c-0.2-0.1-0.4-0.2-0.5-0.4c-0.1-0.2-0.2-0.3-0.3-0.6s-0.1-0.5-0.1-0.7v-3L52.5,35.4L52.5,35.4z"/>
		<path class="st1" d="M56.9,40.1v-4.7h0.5c0.1,0,0.2,0.1,0.2,0.2l0.1,0.5c0.2-0.2,0.4-0.4,0.7-0.5c0.2-0.1,0.5-0.2,0.9-0.2
			c0.3,0,0.5,0,0.7,0.1c0.2,0.1,0.4,0.2,0.5,0.4c0.1,0.2,0.2,0.3,0.3,0.6s0.1,0.5,0.1,0.7v3H60v-3c0-0.4-0.1-0.6-0.2-0.8
			s-0.4-0.3-0.8-0.3c-0.2,0-0.5,0.1-0.7,0.2c-0.2,0.1-0.4,0.3-0.6,0.5v3.5C57.7,40.1,56.9,40.1,56.9,40.1z"/>
		<path class="st1" d="M63,33.9c0,0.1,0,0.2,0,0.2s-0.1,0.1-0.1,0.2c0,0-0.1,0.1-0.2,0.1c-0.1,0-0.2,0-0.2,0s-0.2,0-0.2,0
			s-0.1-0.1-0.2-0.1s-0.1-0.1-0.1-0.2c0-0.1,0-0.2,0-0.2s0-0.2,0-0.2s0.1-0.1,0.1-0.2c0,0,0.1-0.1,0.2-0.1c0.1,0,0.2,0,0.2,0
			s0.2,0,0.2,0s0.1,0.1,0.2,0.1c0,0,0.1,0.1,0.1,0.2C63,33.7,63,33.8,63,33.9z M62.8,35.4v4.7H62v-4.7H62.8z"/>
		<path class="st1" d="M67.4,36.2C67.4,36.2,67.3,36.3,67.4,36.2c-0.1,0.1-0.1,0.1-0.2,0.1s-0.1,0-0.2-0.1s-0.1-0.1-0.2-0.1
			c-0.1,0-0.2-0.1-0.3-0.1c-0.1,0-0.3-0.1-0.4-0.1c-0.2,0-0.4,0-0.6,0.1c-0.2,0.1-0.3,0.2-0.4,0.4c-0.1,0.2-0.2,0.3-0.3,0.6
			s-0.1,0.5-0.1,0.7c0,0.3,0,0.5,0.1,0.8c0.1,0.2,0.2,0.4,0.3,0.6c0.1,0.2,0.3,0.3,0.4,0.3c0.2,0.1,0.4,0.1,0.6,0.1
			c0.2,0,0.4,0,0.5-0.1s0.2-0.1,0.3-0.2c0.1-0.1,0.2-0.1,0.2-0.2c0.1,0,0.1-0.1,0.2-0.1c0.1,0,0.1,0,0.2,0.1l0.2,0.3
			c-0.2,0.2-0.5,0.4-0.8,0.5c-0.3,0.1-0.6,0.2-1,0.2c-0.3,0-0.6,0-0.8-0.2s-0.5-0.3-0.7-0.5c-0.2-0.2-0.3-0.5-0.4-0.8
			s-0.2-0.6-0.2-1c0-0.3,0-0.7,0.2-1s0.2-0.6,0.4-0.8c0.2-0.2,0.4-0.4,0.7-0.5c0.3-0.1,0.6-0.2,0.9-0.2c0.3,0,0.6,0,0.9,0.2
			c0.2,0.1,0.5,0.3,0.7,0.5L67.4,36.2z"/>
		<path class="st1" d="M69.5,33.9c0,0.1,0,0.2-0.1,0.2c0,0.1-0.1,0.1-0.1,0.2c-0.1,0-0.1,0.1-0.2,0.1c-0.1,0-0.2,0-0.2,0
			s-0.2,0-0.2,0s-0.1-0.1-0.2-0.1c-0.1,0-0.1-0.1-0.1-0.2s-0.1-0.2-0.1-0.2s0-0.2,0.1-0.2c0-0.1,0.1-0.1,0.1-0.2
			c0.1,0,0.1-0.1,0.2-0.1c0.1,0,0.2,0,0.2,0s0.2,0,0.2,0s0.1,0.1,0.2,0.1c0.1,0,0.1,0.1,0.1,0.2C69.5,33.7,69.5,33.8,69.5,33.9z
			 M69.3,35.4v4.7h-0.8v-4.7H69.3z"/>
		<path class="st1" d="M70.6,41.7v-6.3h0.5c0.1,0,0.2,0.1,0.2,0.2l0.1,0.6c0.2-0.2,0.4-0.4,0.7-0.6s0.6-0.2,0.9-0.2
			c0.3,0,0.5,0,0.7,0.2c0.2,0.1,0.4,0.3,0.6,0.5c0.2,0.2,0.3,0.5,0.4,0.8c0.1,0.3,0.1,0.7,0.1,1c0,0.3-0.1,0.7-0.1,1
			s-0.2,0.6-0.4,0.8c-0.2,0.2-0.4,0.4-0.6,0.5s-0.5,0.2-0.8,0.2c-0.3,0-0.5,0-0.8-0.1c-0.2-0.1-0.4-0.2-0.6-0.4v2.1L70.6,41.7
			L70.6,41.7z M72.7,36c-0.3,0-0.5,0.1-0.7,0.2c-0.2,0.1-0.4,0.3-0.6,0.5v2.3c0.2,0.2,0.3,0.3,0.5,0.4s0.4,0.1,0.6,0.1
			c0.4,0,0.8-0.2,1-0.5c0.2-0.3,0.3-0.8,0.3-1.3c0-0.3,0-0.6-0.1-0.8s-0.1-0.4-0.2-0.5c-0.1-0.1-0.2-0.2-0.4-0.3
			C73.1,36,72.9,36,72.7,36z"/>
		<path class="st1" d="M79.1,40.1h-0.4c-0.1,0-0.2,0-0.2,0c-0.1,0-0.1-0.1-0.1-0.2l-0.1-0.4c-0.1,0.1-0.2,0.2-0.4,0.3
			c-0.1,0.1-0.2,0.2-0.4,0.2c-0.1,0.1-0.3,0.1-0.4,0.1s-0.3,0-0.5,0s-0.3,0-0.5-0.1c-0.2,0-0.3-0.1-0.4-0.2
			c-0.1-0.1-0.2-0.2-0.3-0.4s-0.1-0.3-0.1-0.6c0-0.2,0.1-0.4,0.2-0.5c0.1-0.2,0.3-0.3,0.5-0.5c0.2-0.1,0.5-0.2,0.9-0.3
			s0.8-0.1,1.4-0.1v-0.4c0-0.4-0.1-0.7-0.2-0.8c-0.2-0.2-0.4-0.3-0.7-0.3c-0.2,0-0.4,0-0.5,0.1c-0.1,0-0.3,0.1-0.4,0.2
			c-0.1,0.1-0.2,0.1-0.3,0.2s-0.2,0.1-0.2,0.1c-0.1,0-0.1,0-0.2,0c0,0-0.1-0.1-0.1-0.1L75.6,36c0.3-0.2,0.5-0.4,0.8-0.6
			c0.3-0.1,0.6-0.2,1-0.2c0.3,0,0.5,0,0.7,0.1c0.2,0.1,0.4,0.2,0.5,0.4c0.1,0.2,0.2,0.3,0.3,0.6s0.1,0.5,0.1,0.7V40.1z M76.9,39.6
			c0.2,0,0.3,0,0.4,0c0.1,0,0.2-0.1,0.3-0.1c0.1,0,0.2-0.1,0.3-0.2s0.2-0.2,0.3-0.3v-1c-0.4,0-0.7,0-1,0.1c-0.3,0-0.5,0.1-0.7,0.2
			c-0.2,0.1-0.3,0.2-0.4,0.3s-0.1,0.2-0.1,0.4c0,0.1,0,0.2,0.1,0.3s0.1,0.2,0.2,0.2s0.2,0.1,0.2,0.1C76.7,39.6,76.8,39.6,76.9,39.6z
			"/>
		<path class="st1" d="M81.1,33.2v6.9h-0.8v-6.9H81.1z"/>
		<path class="st1" d="M84.3,35.3c0.3,0,0.5,0,0.8,0.1s0.4,0.2,0.6,0.4c0.2,0.2,0.3,0.4,0.4,0.7c0.1,0.3,0.2,0.6,0.2,0.9
			c0,0.1,0,0.2,0,0.3c0,0-0.1,0.1-0.2,0.1H83c0,0.3,0.1,0.6,0.1,0.8c0.1,0.2,0.2,0.4,0.3,0.5c0.1,0.2,0.3,0.3,0.5,0.3
			c0.2,0.1,0.4,0.1,0.6,0.1c0.2,0,0.4,0,0.5-0.1s0.3-0.1,0.4-0.2s0.2-0.1,0.3-0.2s0.1-0.1,0.2-0.1c0.1,0,0.1,0,0.2,0.1l0.2,0.3
			c-0.1,0.1-0.2,0.2-0.4,0.3s-0.3,0.2-0.5,0.2c-0.2,0.1-0.3,0.1-0.5,0.1c-0.2,0-0.3,0-0.5,0c-0.3,0-0.6-0.1-0.9-0.2
			c-0.3-0.1-0.5-0.3-0.7-0.5s-0.4-0.5-0.5-0.8s-0.2-0.7-0.2-1.1c0-0.3,0.1-0.6,0.2-0.9c0.1-0.3,0.2-0.5,0.4-0.7
			c0.2-0.2,0.4-0.4,0.7-0.5C83.7,35.3,84,35.3,84.3,35.3z M84.3,35.9c-0.4,0-0.7,0.1-0.9,0.3c-0.2,0.2-0.4,0.5-0.4,1h2.6
			c0-0.2,0-0.4-0.1-0.5s-0.1-0.3-0.2-0.4c-0.1-0.1-0.2-0.2-0.4-0.3C84.7,35.9,84.5,35.9,84.3,35.9z"/>
		<path class="st1" d="M89.9,36.2c0,0.1-0.1,0.1-0.2,0.1c-0.1,0-0.1,0-0.2,0c-0.1,0-0.1-0.1-0.2-0.1c-0.1,0-0.2-0.1-0.3-0.1
			c-0.1,0-0.3,0-0.4,0c-0.1,0-0.3,0-0.4,0c-0.1,0-0.2,0.1-0.3,0.2c-0.1,0.1-0.1,0.1-0.2,0.2c0,0.1-0.1,0.2-0.1,0.3
			c0,0.1,0,0.2,0.1,0.3c0.1,0.1,0.2,0.2,0.3,0.2c0.1,0.1,0.2,0.1,0.4,0.2c0.2,0,0.3,0.1,0.4,0.1c0.2,0,0.3,0.1,0.4,0.2
			s0.3,0.1,0.4,0.2s0.2,0.2,0.3,0.3c0.1,0.1,0.1,0.3,0.1,0.5c0,0.2,0,0.4-0.1,0.6s-0.2,0.3-0.3,0.5c-0.2,0.1-0.3,0.2-0.6,0.3
			c-0.2,0.1-0.5,0.1-0.8,0.1c-0.3,0-0.6,0-0.9-0.2c-0.3-0.1-0.5-0.2-0.7-0.4l0.2-0.3c0,0,0.1-0.1,0.1-0.1c0,0,0.1,0,0.1,0
			s0.1,0,0.2,0.1c0.1,0,0.1,0.1,0.2,0.1c0.1,0,0.2,0.1,0.3,0.1c0.1,0,0.3,0.1,0.5,0.1c0.2,0,0.3,0,0.4-0.1c0.1,0,0.2-0.1,0.3-0.2
			s0.1-0.2,0.2-0.2c0-0.1,0.1-0.2,0.1-0.3c0-0.1,0-0.2-0.1-0.3c-0.1-0.1-0.2-0.2-0.3-0.2c-0.1-0.1-0.2-0.1-0.4-0.2
			c-0.2,0-0.3-0.1-0.4-0.1c-0.2,0-0.3-0.1-0.4-0.2c-0.2-0.1-0.3-0.1-0.4-0.2c-0.1-0.1-0.2-0.2-0.3-0.4S87,36.9,87,36.7
			c0-0.2,0-0.3,0.1-0.5c0.1-0.2,0.2-0.3,0.3-0.4c0.1-0.1,0.3-0.2,0.5-0.3s0.4-0.1,0.7-0.1c0.3,0,0.6,0,0.8,0.2
			c0.2,0.1,0.5,0.2,0.6,0.4L89.9,36.2z"/>
		<path class="st1" d="M97.6,38.7c0.1,0,0.1,0,0.1,0.1l0.3,0.4c-0.3,0.3-0.6,0.6-1,0.7c-0.4,0.2-0.9,0.3-1.4,0.3
			c-0.5,0-0.9-0.1-1.3-0.2s-0.7-0.4-1-0.7c-0.3-0.3-0.5-0.7-0.6-1.1c-0.2-0.4-0.2-0.9-0.2-1.4s0.1-1,0.2-1.4
			c0.2-0.4,0.4-0.8,0.7-1.1c0.3-0.3,0.7-0.5,1.1-0.7c0.4-0.2,0.9-0.2,1.4-0.2s0.9,0.1,1.3,0.2c0.4,0.2,0.7,0.4,0.9,0.6l-0.3,0.4
			c0,0-0.1,0.1-0.1,0.1c0,0-0.1,0-0.1,0c0,0-0.1,0-0.1,0c-0.1,0-0.1-0.1-0.2-0.1c-0.1,0-0.1-0.1-0.2-0.1s-0.2-0.1-0.3-0.1
			c-0.1,0-0.2-0.1-0.4-0.1s-0.3,0-0.5,0c-0.4,0-0.7,0.1-1,0.2s-0.6,0.3-0.8,0.5c-0.2,0.2-0.4,0.5-0.5,0.8s-0.2,0.7-0.2,1.1
			c0,0.4,0.1,0.8,0.2,1.1s0.3,0.6,0.5,0.8c0.2,0.2,0.4,0.4,0.7,0.5s0.6,0.2,0.9,0.2c0.2,0,0.4,0,0.5,0c0.2,0,0.3-0.1,0.4-0.1
			c0.1,0,0.3-0.1,0.4-0.2c0.1-0.1,0.2-0.2,0.3-0.3C97.5,38.7,97.6,38.7,97.6,38.7z"/>
		<path class="st1" d="M100.9,35.3c0.3,0,0.7,0.1,0.9,0.2c0.3,0.1,0.5,0.3,0.7,0.5c0.2,0.2,0.3,0.5,0.4,0.8c0.1,0.3,0.2,0.6,0.2,1
			s-0.1,0.7-0.2,1c-0.1,0.3-0.2,0.5-0.4,0.8c-0.2,0.2-0.4,0.4-0.7,0.5c-0.3,0.1-0.6,0.2-0.9,0.2s-0.7-0.1-0.9-0.2
			c-0.3-0.1-0.5-0.3-0.7-0.5c-0.2-0.2-0.3-0.5-0.4-0.8c-0.1-0.3-0.2-0.6-0.2-1c0-0.4,0.1-0.7,0.2-1s0.3-0.6,0.4-0.8
			c0.2-0.2,0.4-0.4,0.7-0.5C100.3,35.3,100.6,35.3,100.9,35.3z M100.9,39.5c0.5,0,0.8-0.2,1-0.5s0.3-0.8,0.3-1.3s-0.1-1-0.3-1.3
			c-0.2-0.3-0.6-0.5-1-0.5c-0.2,0-0.4,0-0.6,0.1c-0.2,0.1-0.3,0.2-0.4,0.3c-0.1,0.2-0.2,0.3-0.3,0.6c-0.1,0.2-0.1,0.5-0.1,0.8
			s0,0.5,0.1,0.8s0.1,0.4,0.3,0.6s0.3,0.3,0.4,0.3C100.5,39.5,100.7,39.5,100.9,39.5z"/>
		<path class="st1" d="M104.1,40.1v-4.7h0.5c0.1,0,0.2,0.1,0.2,0.2l0.1,0.5c0.2-0.2,0.4-0.4,0.6-0.5c0.2-0.1,0.5-0.2,0.8-0.2
			c0.3,0,0.6,0.1,0.8,0.3s0.3,0.4,0.4,0.7c0.1-0.2,0.2-0.3,0.3-0.4s0.2-0.2,0.4-0.3s0.3-0.1,0.4-0.2s0.3-0.1,0.5-0.1
			c0.2,0,0.5,0,0.7,0.1c0.2,0.1,0.4,0.2,0.5,0.3c0.1,0.2,0.2,0.3,0.3,0.6s0.1,0.5,0.1,0.8v3h-0.8v-3c0-0.4-0.1-0.7-0.2-0.8
			c-0.2-0.2-0.4-0.3-0.7-0.3c-0.1,0-0.3,0-0.4,0.1s-0.2,0.1-0.3,0.2s-0.2,0.2-0.2,0.3s-0.1,0.3-0.1,0.5v3h-0.8v-3
			c0-0.4-0.1-0.7-0.2-0.8s-0.4-0.3-0.7-0.3c-0.2,0-0.4,0.1-0.6,0.2c-0.2,0.1-0.3,0.3-0.5,0.5v3.5L104.1,40.1L104.1,40.1z"/>
		<path class="st1" d="M111.6,41.7v-6.3h0.5c0.1,0,0.2,0.1,0.2,0.2l0.1,0.6c0.2-0.2,0.4-0.4,0.7-0.6s0.6-0.2,0.9-0.2
			c0.3,0,0.5,0,0.7,0.2c0.2,0.1,0.4,0.3,0.6,0.5c0.2,0.2,0.3,0.5,0.4,0.8c0.1,0.3,0.1,0.7,0.1,1c0,0.3-0.1,0.7-0.1,1
			c-0.1,0.3-0.2,0.6-0.4,0.8c-0.2,0.2-0.4,0.4-0.6,0.5s-0.5,0.2-0.8,0.2c-0.3,0-0.5,0-0.8-0.1c-0.2-0.1-0.4-0.2-0.6-0.4v2.1
			L111.6,41.7L111.6,41.7z M113.7,36c-0.3,0-0.5,0.1-0.7,0.2c-0.2,0.1-0.4,0.3-0.6,0.5v2.3c0.2,0.2,0.3,0.3,0.5,0.4s0.4,0.1,0.6,0.1
			c0.4,0,0.8-0.2,1-0.5c0.2-0.3,0.3-0.8,0.3-1.3c0-0.3,0-0.6-0.1-0.8s-0.1-0.4-0.2-0.5c-0.1-0.1-0.2-0.2-0.4-0.3
			C114,36,113.9,36,113.7,36z"/>
		<path class="st1" d="M117.5,33.2v6.9h-0.8v-6.9H117.5z"/>
		<path class="st1" d="M120.7,35.3c0.3,0,0.5,0,0.8,0.1s0.4,0.2,0.6,0.4c0.2,0.2,0.3,0.4,0.4,0.7c0.1,0.3,0.2,0.6,0.2,0.9
			c0,0.1,0,0.2,0,0.3c0,0-0.1,0.1-0.2,0.1h-3.1c0,0.3,0.1,0.6,0.1,0.8s0.2,0.4,0.3,0.5c0.1,0.2,0.3,0.3,0.5,0.3
			c0.2,0.1,0.4,0.1,0.6,0.1c0.2,0,0.4,0,0.5-0.1s0.3-0.1,0.4-0.2s0.2-0.1,0.3-0.2s0.1-0.1,0.2-0.1c0.1,0,0.1,0,0.2,0.1l0.2,0.3
			c-0.1,0.1-0.2,0.2-0.4,0.3s-0.3,0.2-0.5,0.2c-0.2,0.1-0.3,0.1-0.5,0.1c-0.2,0-0.3,0-0.5,0c-0.3,0-0.6-0.1-0.9-0.2
			c-0.3-0.1-0.5-0.3-0.7-0.5s-0.4-0.5-0.5-0.8s-0.2-0.7-0.2-1.1c0-0.3,0.1-0.6,0.2-0.9c0.1-0.3,0.2-0.5,0.4-0.7
			c0.2-0.2,0.4-0.4,0.7-0.5C120.1,35.3,120.4,35.3,120.7,35.3z M120.7,35.9c-0.4,0-0.7,0.1-0.9,0.3c-0.2,0.2-0.4,0.5-0.4,1h2.6
			c0-0.2,0-0.4-0.1-0.5s-0.1-0.3-0.2-0.4c-0.1-0.1-0.2-0.2-0.4-0.3C121.1,35.9,120.9,35.9,120.7,35.9z"/>
		<path class="st1" d="M123.6,40.1v-4.7h0.5c0.1,0,0.2,0.1,0.2,0.2l0.1,0.5c0.2-0.2,0.4-0.4,0.6-0.5c0.2-0.1,0.5-0.2,0.8-0.2
			c0.3,0,0.6,0.1,0.8,0.3s0.3,0.4,0.4,0.7c0.1-0.2,0.2-0.3,0.3-0.4s0.2-0.2,0.4-0.3s0.3-0.1,0.4-0.2s0.3-0.1,0.5-0.1
			c0.2,0,0.5,0,0.7,0.1c0.2,0.1,0.4,0.2,0.5,0.3c0.1,0.2,0.2,0.3,0.3,0.6c0.1,0.2,0.1,0.5,0.1,0.8v3h-0.8v-3c0-0.4-0.1-0.7-0.2-0.8
			s-0.4-0.3-0.7-0.3c-0.1,0-0.3,0-0.4,0.1s-0.2,0.1-0.3,0.2s-0.2,0.2-0.2,0.3s-0.1,0.3-0.1,0.5v3h-0.8v-3c0-0.4-0.1-0.7-0.2-0.8
			s-0.4-0.3-0.7-0.3c-0.2,0-0.4,0.1-0.6,0.2c-0.2,0.1-0.3,0.3-0.5,0.5v3.5L123.6,40.1L123.6,40.1z"/>
		<path class="st1" d="M133,35.3c0.3,0,0.5,0,0.8,0.1s0.4,0.2,0.6,0.4s0.3,0.4,0.4,0.7s0.1,0.6,0.1,0.9c0,0.1,0,0.2,0,0.3
			c0,0-0.1,0.1-0.2,0.1h-3.1c0,0.3,0.1,0.6,0.1,0.8c0.1,0.2,0.2,0.4,0.3,0.5c0.1,0.2,0.3,0.3,0.5,0.3c0.2,0.1,0.4,0.1,0.6,0.1
			c0.2,0,0.4,0,0.5-0.1s0.3-0.1,0.4-0.2s0.2-0.1,0.3-0.2s0.1-0.1,0.2-0.1c0.1,0,0.1,0,0.2,0.1l0.2,0.3c-0.1,0.1-0.2,0.2-0.4,0.3
			s-0.3,0.2-0.5,0.2s-0.3,0.1-0.5,0.1c-0.2,0-0.4,0-0.5,0c-0.3,0-0.6-0.1-0.9-0.2c-0.3-0.1-0.5-0.3-0.7-0.5
			c-0.2-0.2-0.4-0.5-0.5-0.8s-0.2-0.7-0.2-1.1c0-0.3,0.1-0.6,0.1-0.9c0.1-0.3,0.2-0.5,0.4-0.7c0.2-0.2,0.4-0.4,0.7-0.5
			S132.6,35.3,133,35.3z M133,35.9c-0.4,0-0.7,0.1-0.9,0.3s-0.4,0.5-0.4,1h2.6c0-0.2,0-0.4-0.1-0.5s-0.1-0.3-0.2-0.4
			c-0.1-0.1-0.2-0.2-0.4-0.3C133.3,35.9,133.2,35.9,133,35.9z"/>
		<path class="st1" d="M135.8,40.1v-4.7h0.5c0.1,0,0.2,0.1,0.2,0.2l0.1,0.5c0.2-0.2,0.4-0.4,0.7-0.5c0.2-0.1,0.6-0.2,0.9-0.2
			c0.3,0,0.5,0,0.7,0.1c0.2,0.1,0.4,0.2,0.5,0.4c0.1,0.2,0.2,0.3,0.3,0.6s0.1,0.5,0.1,0.7v3h-0.8v-3c0-0.4-0.1-0.6-0.2-0.8
			s-0.4-0.3-0.8-0.3c-0.2,0-0.5,0.1-0.7,0.2c-0.2,0.1-0.4,0.3-0.6,0.5v3.5C136.7,40.1,135.8,40.1,135.8,40.1z"/>
		<path class="st1" d="M142.3,40.2c-0.4,0-0.7-0.1-0.9-0.3c-0.2-0.2-0.3-0.5-0.3-0.9v-2.9h-0.6c-0.1,0-0.1,0-0.1,0
			c0,0-0.1-0.1-0.1-0.1v-0.3l0.8-0.1l0.2-1.5c0,0,0-0.1,0.1-0.1s0.1,0,0.1,0h0.4v1.6h1.4v0.6H142v2.8c0,0.2,0.1,0.3,0.1,0.4
			c0.1,0.1,0.2,0.1,0.4,0.1c0.1,0,0.2,0,0.2,0c0.1,0,0.1,0,0.2-0.1c0.1,0,0.1,0,0.1-0.1c0,0,0.1,0,0.1,0c0,0,0.1,0,0.1,0.1l0.2,0.4
			c-0.1,0.1-0.3,0.2-0.5,0.3S142.5,40.2,142.3,40.2z"/>
		<path class="st1" d="M147.7,40.1h-0.4c-0.1,0-0.1,0-0.2,0c-0.1,0-0.1-0.1-0.1-0.2l-0.1-0.4c-0.1,0.1-0.2,0.2-0.4,0.3
			c-0.1,0.1-0.2,0.2-0.4,0.2c-0.1,0.1-0.3,0.1-0.4,0.1s-0.3,0-0.5,0c-0.2,0-0.4,0-0.5-0.1c-0.2,0-0.3-0.1-0.4-0.2s-0.2-0.2-0.3-0.4
			c-0.1-0.2-0.1-0.3-0.1-0.6c0-0.2,0.1-0.4,0.1-0.5s0.3-0.3,0.5-0.5c0.2-0.1,0.5-0.2,0.9-0.3s0.8-0.1,1.4-0.1v-0.4
			c0-0.4-0.1-0.7-0.2-0.8s-0.4-0.3-0.7-0.3c-0.2,0-0.4,0-0.5,0.1c-0.1,0-0.3,0.1-0.4,0.2c-0.1,0.1-0.2,0.1-0.3,0.2
			c-0.1,0-0.1,0.1-0.2,0.1c-0.1,0-0.1,0-0.1,0c0,0-0.1-0.1-0.1-0.1l-0.1-0.3c0.3-0.2,0.5-0.4,0.8-0.6c0.3-0.1,0.6-0.2,1-0.2
			c0.3,0,0.5,0,0.7,0.1c0.2,0.1,0.4,0.2,0.5,0.4c0.1,0.2,0.2,0.3,0.3,0.6s0.1,0.5,0.1,0.7L147.7,40.1L147.7,40.1z M145.5,39.6
			c0.1,0,0.3,0,0.4,0c0.1,0,0.2-0.1,0.3-0.1c0.1,0,0.2-0.1,0.3-0.2c0.1-0.1,0.2-0.2,0.3-0.3v-1c-0.4,0-0.7,0-1,0.1
			c-0.3,0-0.5,0.1-0.6,0.2c-0.2,0.1-0.3,0.2-0.4,0.3s-0.1,0.2-0.1,0.4c0,0.1,0,0.2,0.1,0.3s0.1,0.2,0.2,0.2c0.1,0.1,0.1,0.1,0.2,0.1
			S145.4,39.6,145.5,39.6z"/>
		<path class="st1" d="M148.8,40.1v-4.7h0.5c0.1,0,0.1,0,0.2,0c0,0,0.1,0.1,0.1,0.2l0.1,0.7c0.2-0.3,0.4-0.6,0.6-0.8
			s0.5-0.3,0.8-0.3c0.1,0,0.2,0,0.4,0c0.1,0,0.2,0.1,0.3,0.1l-0.1,0.6c0,0.1-0.1,0.1-0.1,0.1c0,0-0.1,0-0.2,0c-0.1,0-0.2,0-0.4,0
			c-0.3,0-0.5,0.1-0.7,0.2c-0.2,0.2-0.4,0.4-0.5,0.7v3L148.8,40.1L148.8,40.1z"/>
		<path class="st1" d="M153.5,33.9c0,0.1,0,0.2-0.1,0.2s-0.1,0.1-0.1,0.2c-0.1,0-0.1,0.1-0.2,0.1c-0.1,0-0.1,0-0.2,0s-0.2,0-0.2,0
			c-0.1,0-0.1-0.1-0.2-0.1s-0.1-0.1-0.1-0.2s-0.1-0.2-0.1-0.2s0-0.2,0.1-0.2s0.1-0.1,0.1-0.2c0.1,0,0.1-0.1,0.2-0.1
			c0.1,0,0.1,0,0.2,0s0.2,0,0.2,0c0.1,0,0.1,0.1,0.2,0.1c0.1,0,0.1,0.1,0.1,0.2S153.5,33.8,153.5,33.9z M153.3,35.4v4.7h-0.8v-4.7
			H153.3z"/>
		<path class="st1" d="M158.1,40.1h-0.4c-0.1,0-0.1,0-0.2,0c-0.1,0-0.1-0.1-0.1-0.2l-0.1-0.4c-0.1,0.1-0.2,0.2-0.4,0.3
			c-0.1,0.1-0.2,0.2-0.4,0.2c-0.1,0.1-0.3,0.1-0.4,0.1s-0.3,0-0.5,0c-0.2,0-0.4,0-0.5-0.1c-0.2,0-0.3-0.1-0.4-0.2s-0.2-0.2-0.3-0.4
			c-0.1-0.2-0.1-0.3-0.1-0.6c0-0.2,0.1-0.4,0.1-0.5s0.3-0.3,0.5-0.5c0.2-0.1,0.5-0.2,0.9-0.3s0.8-0.1,1.4-0.1v-0.4
			c0-0.4-0.1-0.7-0.2-0.8s-0.4-0.3-0.7-0.3c-0.2,0-0.4,0-0.5,0.1c-0.1,0-0.3,0.1-0.4,0.2c-0.1,0.1-0.2,0.1-0.3,0.2
			c-0.1,0-0.1,0.1-0.2,0.1c-0.1,0-0.1,0-0.1,0c0,0-0.1-0.1-0.1-0.1l-0.1-0.3c0.3-0.2,0.5-0.4,0.8-0.6c0.3-0.1,0.6-0.2,1-0.2
			c0.3,0,0.5,0,0.7,0.1c0.2,0.1,0.4,0.2,0.5,0.4c0.1,0.2,0.2,0.3,0.3,0.6s0.1,0.5,0.1,0.7L158.1,40.1L158.1,40.1z M156,39.6
			c0.1,0,0.3,0,0.4,0c0.1,0,0.2-0.1,0.3-0.1c0.1,0,0.2-0.1,0.3-0.2c0.1-0.1,0.2-0.2,0.3-0.3v-1c-0.4,0-0.7,0-1,0.1
			c-0.3,0-0.5,0.1-0.6,0.2c-0.2,0.1-0.3,0.2-0.4,0.3s-0.1,0.2-0.1,0.4c0,0.1,0,0.2,0.1,0.3s0.1,0.2,0.2,0.2c0.1,0.1,0.1,0.1,0.2,0.1
			S155.9,39.6,156,39.6z"/>
		<path class="st1" d="M161.9,36.2c0,0.1-0.1,0.1-0.2,0.1c-0.1,0-0.1,0-0.2,0s-0.1-0.1-0.2-0.1c-0.1,0-0.2-0.1-0.3-0.1
			c-0.1,0-0.3,0-0.4,0c-0.1,0-0.3,0-0.4,0c-0.1,0-0.2,0.1-0.3,0.2c-0.1,0.1-0.1,0.1-0.2,0.2c0,0.1-0.1,0.2-0.1,0.3
			c0,0.1,0,0.2,0.1,0.3c0.1,0.1,0.2,0.2,0.3,0.2c0.1,0.1,0.2,0.1,0.4,0.2c0.1,0,0.3,0.1,0.4,0.1s0.3,0.1,0.4,0.2s0.3,0.1,0.4,0.2
			s0.2,0.2,0.3,0.3c0.1,0.1,0.1,0.3,0.1,0.5c0,0.2,0,0.4-0.1,0.6s-0.2,0.3-0.3,0.5s-0.3,0.2-0.6,0.3c-0.2,0.1-0.5,0.1-0.8,0.1
			c-0.3,0-0.6,0-0.9-0.2c-0.3-0.1-0.5-0.2-0.7-0.4l0.2-0.3c0,0,0.1-0.1,0.1-0.1c0,0,0.1,0,0.1,0s0.1,0,0.2,0.1
			c0.1,0,0.1,0.1,0.2,0.1s0.2,0.1,0.3,0.1c0.1,0,0.3,0.1,0.5,0.1c0.2,0,0.3,0,0.4-0.1s0.2-0.1,0.3-0.2s0.1-0.2,0.2-0.2
			c0-0.1,0.1-0.2,0.1-0.3c0-0.1,0-0.2-0.1-0.3c-0.1-0.1-0.2-0.2-0.3-0.2c-0.1-0.1-0.2-0.1-0.4-0.2c-0.1,0-0.3-0.1-0.4-0.1
			s-0.3-0.1-0.4-0.2c-0.1-0.1-0.3-0.1-0.4-0.2s-0.2-0.2-0.3-0.4c-0.1-0.1-0.1-0.3-0.1-0.5c0-0.2,0-0.3,0.1-0.5
			c0.1-0.2,0.2-0.3,0.3-0.4c0.1-0.1,0.3-0.2,0.5-0.3c0.2-0.1,0.4-0.1,0.7-0.1c0.3,0,0.6,0,0.8,0.2c0.2,0.1,0.5,0.2,0.6,0.4
			L161.9,36.2z"/>
	</g>
	<g>
		<path class="st1" d="M114.5,5.3c-6.4,0-11.6,5.2-11.6,11.6s5.2,11.6,11.6,11.6s11.6-5.2,11.6-11.6S120.9,5.3,114.5,5.3z
			 M114.5,23.8c-3.8,0-6.8-3.1-6.8-6.9s3.1-6.9,6.8-6.9s6.8,3.1,6.8,6.9S118.3,23.8,114.5,23.8z"/>
	</g>
	<g>
		<path class="st1" d="M151.6,28.6v-3.3l2.4-0.5v-1.9h-9l-0.4-2.6L154,5.2h5.6v14.2h2.3v3.5h-2.3v1.9l2.4,0.5v3.3
			C162.1,28.6,151.6,28.6,151.6,28.6z M149.7,19.3h4.3v-6.9l-0.1,0l-0.4,0.6L149.7,19.3z"/>
	</g>
	<path class="st2" d="M84.1,25.7c-0.3-0.6-0.6-1.1-1-1.6c-0.1-0.1-0.2-0.2-0.3-0.3c0,0-0.1-0.1-0.1-0.1c0-0.1,0-0.2-0.1-0.3
		s-0.1-0.2-0.2-0.2c-0.1,0-0.2-0.1-0.2-0.2c0,0,0-0.1,0-0.1c-0.2-0.8,0.3-1.7,0-2.5c-0.6-1.6-2.3-2.6-3.4-4
		c-0.3-0.3-0.5-0.5-0.6-0.9c-0.1-0.1-0.3-0.2-0.4-0.3c-0.1-0.3-0.1-0.6-0.1-0.9c0-0.1-0.2-0.1-0.2-0.1c-0.7,0.1-1.1-0.6-1.5-1.1v0.2
		c0-0.4-0.4-0.5-0.5-0.9c-0.1-0.3,0.1-0.6,0.1-0.8c0,0,0,0,0,0c0.3-0.8-0.1-1.8,0.3-2.4c0.2-0.3,0.7,0.4,0.8,0.2
		c0.2-0.3,0.1-0.9,0-1.2c-0.1-0.5-0.3-0.8-0.5-1.3c-0.1-0.3,0-0.7-0.1-1c0,0,0-0.1,0-0.1c-0.1-0.3-0.4-0.8-0.2-0.9
		c0.5-0.5,0.9-1,0.7-1.7c-0.3-0.9-0.5-1.8-1.1-2.7c-0.1-0.1-0.2-0.3-0.3-0.4C75.3,0,75.1,0,75,0.1c-0.1,0-0.1,0.1-0.2,0.2
		c-0.6,0.7-1.8,1.1-1.7,2.1c0,0.2-0.1,0.3-0.3,0.3h0c-0.1,0-0.3,0.1-0.3,0.2c0,0.2,0,0.6-0.1,0.8c0,0-0.1,0.1-0.1,0.1
		C71.9,3.9,71.4,4,71,3.9c-0.1,0-0.3,0-0.3,0.2c-0.1,0.1-0.1,0.2-0.2,0.3c-0.1,0.3-0.5,0.3-0.6,0.5c-0.5,0.5-0.9,1-1.4,1.5
		c-0.1,0.1-0.1,0.5,0.1,0.5C69,7,69.3,7.3,69.3,7.7c0.1,0.5,0.2,1.1,0.1,1.6c0,0.1-0.1,0.2-0.2,0.2c-0.5,0.2-0.4,1-0.3,1.4
		c0.1,0.5,0.3,1,0.1,1.4c-0.1,0.2-0.2,0.3-0.3,0.5c-0.1,0.1-0.2,0.1-0.2,0.1c-0.1,0-0.1,0-0.2,0c-0.1,0.2-0.2,0.5,0,0.7
		c0.1,0.1,0.1,0.1,0.2,0.1c0.2,0,0.4-0.1,0.6,0c0,0,0.1,0,0.1,0c0.2,0.1,0.5,0.2,0.7,0.2c0.1,0,0.2,0.1,0.3,0.2c0,0,0,0.1,0.1,0.1
		c0.2,0,0.3,0,0.4,0.1c0.1,0,0.1,0.1,0.2,0.2c0,0.1,0,0.1,0,0.2c0,0.1-0.1,0.2-0.2,0.3c-0.2,0-0.4,0.1-0.4,0.2
		c-0.1,0.5-0.3,0.9-0.5,1.3c-0.1,0.1-0.2,0.2-0.3,0.2c-0.6,0-1.2-0.4-1.8-0.3c0,0-0.1,0-0.1,0c-0.2,0.1-0.4,0.3-0.5,0.6
		c-0.2,0.3,0.1,0.6-0.1,0.9c-0.1,0.1-0.1,0.4-0.1,0.6c0.1,0.3,0.7,0.3,0.7,0.7c0.1,0.3,0.1,0.5,0.2,0.8c0.1,0.5,0.6,0.8,1.1,0.6
		c0.6-0.3,1.4-0.4,2,0c0,0,0,0,0.1,0c0.2,0.2,0.4,0.6,0.2,1c-0.2,0.3-0.7,0-1.1,0.2c0,0-0.1,0-0.1,0.1c-0.2,0.2-0.4,0.5-0.2,0.8
		c0.1,0.1,0.1,0.2,0.1,0.4c0,0.1,0.1,0.1,0.1,0.2c0.2,0.1,0.3,0.3,0.4,0.5h0.1c0.1,0.2,0.1,0.6,0,0.9c0,0-0.1,0.1-0.1,0.1
		c-0.1,0-0.2,0.1-0.3,0.2c0,0-0.1,0-0.1,0.1c-0.1,0.1-0.2,0.2-0.2,0.3c0,0,0,0,0,0c-0.3,0.6-0.3,1.4-0.1,2.1
		c0.1,0.2,0.4,0.3,0.7,0.3c0,0,0,0,0.1,0c0.5,0.2,0.9,0.6,1.3,1c0,0.1,0.1,0.2,0.1,0.3c0.3-0.1,0.5,0.1,0.5,0.3
		c0.1,0.3,0.1,0.7,0.1,1c0,0.2,0.2,0.3,0.3,0.3c0.8-0.1,1-1.4,1.3-2c0-0.1,0.4,0,0.6,0.1c0.2,0.1,0.5,0,0.7,0.1
		c0.2,0.1,0.5,0.3,0.6,0.6c0,0.2,0.3,0.2,0.5,0.1c0-0.1,0.4,0.2,0.4,0.1c0,0,0.5-0.1,0.7,0.1c0.1,0.1,0,0.5,0.1,0.7
		c0,0,0,0.1,0.1,0.1c0.4,0.4,0.9,0.2,1.4,0.2c0.2,0,0.3,0.1,0.3,0.3c0,0.1,0,0.3,0,0.4c0,0.3,0.4,0.4,0.5,0.2
		c0.1-0.1,0.2-0.2,0.2-0.3c0.5-0.3,0.7-0.7,1.1-1c0.4-0.4,0.8-0.3,1.2-0.3c0.1,0,0.2-0.1,0.2-0.1c0,0,0.1-0.1,0.1-0.1
		c0,0,0.1-0.1,0.1-0.2c0-0.2-0.1-0.4,0.1-0.5c0.3-0.2,0.5-0.4,0.9-0.4c0.1,0,0.1-0.1,0.1-0.2c0.1-0.1,0.3-0.2,0.5-0.3
		c0,0,0.1-0.1,0.1-0.1c0.1-0.1,0.1-0.1,0.1-0.2c0,0,0-0.1,0-0.1C84.6,26.9,84.4,26.2,84.1,25.7z"/>
	<path class="st0" d="M64.1,22.5c-0.1,0-0.3-0.1-0.4-0.1c-0.2,0-0.3,0-0.5,0.1s-0.3,0.2-0.4,0.3c-0.3,0.3-0.7,0.5-1,0.7
		c-0.3,0.2-0.7,0.3-1,0.5c-0.3,0.1-0.7,0.2-1.1,0.2c-0.2,0-0.4,0-0.6,0c-0.1,0-0.2,0-0.3,0c-1,0-1.9-0.2-2.7-0.5
		c-0.8-0.4-1.5-0.9-2.1-1.5c-0.6-0.6-1-1.5-1.4-2.4c-0.3-0.8-0.5-1.8-0.5-2.8c0-0.1,0-0.2,0-0.4s0-0.2,0-0.4c0-1,0.2-1.9,0.5-2.8
		c0.3-0.9,0.8-1.7,1.4-2.4c0.6-0.6,1.3-1.2,2.1-1.5c0.8-0.4,1.7-0.5,2.7-0.5c0.1,0,0.2,0,0.3,0c0.2,0,0.4,0,0.6,0.1
		c0.4,0.1,0.8,0.1,1.1,0.2s0.7,0.3,1,0.5s0.6,0.4,1,0.7c0.1,0.1,0.3,0.2,0.4,0.3c0.2,0.1,0.3,0.1,0.5,0.1c0.1,0,0.3,0,0.4-0.1
		c0.1-0.1,0.2-0.1,0.4-0.2l2.2-2.3c-0.9-1.2-2.1-2.2-3.6-2.8c-1.1-0.5-2.4-0.8-3.9-0.9c-0.1,0-0.2-0.1-0.4-0.1c-0.1,0-0.3,0-0.4,0
		s-0.3,0-0.4,0c-1.8,0-3.4,0.3-4.8,0.9s-2.6,1.4-3.6,2.5c-1,1.1-1.8,2.3-2.3,3.8c-0.5,1.4-0.8,3-0.8,4.7c0,0,0,0.1,0,0.1v0v0
		c0,0,0,0.1,0,0.1c0,1.7,0.3,3.2,0.8,4.7c0.5,1.5,1.3,2.8,2.3,3.8c1,1.1,2.2,1.9,3.6,2.5s3,0.9,4.8,0.9c0.1,0,0.3,0,0.4,0
		s0.3,0,0.4,0c0.1,0,0.2,0,0.3,0c1.5-0.1,2.8-0.4,4-0.9c1.4-0.6,2.6-1.6,3.6-2.8l-2.2-2.3C64.3,22.7,64.2,22.6,64.1,22.5z"/>
</g>
</svg>
