<?xml version="1.0" encoding="utf-8"?>
<!-- Generator: Adobe Illustrator 27.9.2, SVG Export Plug-In . SVG Version: 6.00 Build 0)  -->
<svg version="1.1" id="Capa_1" xmlns="http://www.w3.org/2000/svg" xmlns:xlink="http://www.w3.org/1999/xlink" x="0px" y="0px"
	 viewBox="0 0 162.22 41.69" style="enable-background:new 0 0 162.22 41.69;" xml:space="preserve">
<style type="text/css">
	.st0{fill:#FFFFFF;}
</style>
<g>
	<g>
		<g>
			<g>
				<path class="st0" d="M15.22,4.94v4.22h-9.7v5.52h7.43v4.06H5.52v5.63h9.7v4.22H0V4.94H15.22z"/>
				<path class="st0" d="M30.55,19.06c0.2,0.44,0.39,0.9,0.58,1.36c0.18-0.48,0.38-0.94,0.58-1.39c0.21-0.45,0.42-0.88,0.63-1.31
					l6.07-11.95c0.11-0.21,0.22-0.37,0.33-0.48c0.11-0.11,0.24-0.2,0.38-0.25c0.14-0.05,0.3-0.08,0.48-0.08c0.18,0,0.39,0,0.62,0
					h4.19v23.62h-4.83V14.98c0-0.66,0.03-1.37,0.1-2.14l-6.26,12.15c-0.2,0.38-0.46,0.67-0.79,0.86c-0.33,0.19-0.71,0.29-1.13,0.29
					h-0.75c-0.42,0-0.8-0.1-1.13-0.29c-0.33-0.19-0.59-0.48-0.79-0.86l-6.29-12.17c0.04,0.38,0.08,0.75,0.1,1.13
					c0.02,0.37,0.03,0.72,0.03,1.03v13.59h-4.83V4.96h4.19c0.24,0,0.45,0,0.62,0c0.18,0,0.34,0.03,0.48,0.08
					c0.14,0.05,0.27,0.14,0.38,0.25c0.11,0.11,0.22,0.27,0.33,0.48l6.08,12C30.14,18.18,30.35,18.61,30.55,19.06z"/>
			</g>
			<g>
				<path class="st0" d="M127.54,28.58v-3.56l7.43-7.83c0.67-0.76,1.19-1.43,1.58-2.01c0.39-0.58,0.67-1.11,0.85-1.6
					c0.17-0.49,0.26-0.96,0.26-1.41c0-0.75-0.2-1.39-0.6-1.91c-0.4-0.52-1-0.78-1.81-0.78c-0.88,0-1.53,0.31-1.95,0.93
					c-0.42,0.62-0.63,1.45-0.63,2.49h-5.43l-0.03-0.1c-0.03-1.43,0.28-2.71,0.93-3.87s1.59-2.06,2.81-2.74
					c1.22-0.68,2.67-1.01,4.32-1.01c1.66,0,3.08,0.29,4.27,0.86c1.19,0.58,2.1,1.38,2.74,2.42c0.64,1.04,0.96,2.26,0.96,3.65
					c0,0.95-0.16,1.82-0.48,2.62c-0.32,0.8-0.85,1.65-1.58,2.56c-0.73,0.91-1.71,2.01-2.94,3.3l-3.48,3.69l0.03,0.08h4.58l0.24-1.92
					h4.17v6.13H127.54z"/>
			</g>
			<g>
				<path class="st0" d="M85.74,28.58v-3.56l7.43-7.83c0.67-0.76,1.19-1.43,1.58-2.01c0.39-0.58,0.67-1.11,0.85-1.6
					c0.17-0.49,0.26-0.96,0.26-1.41c0-0.75-0.2-1.39-0.6-1.91c-0.4-0.52-1-0.78-1.81-0.78c-0.88,0-1.53,0.31-1.95,0.93
					c-0.42,0.62-0.63,1.45-0.63,2.49h-5.43l-0.03-0.1c-0.03-1.43,0.28-2.71,0.93-3.87c0.65-1.15,1.59-2.06,2.81-2.74
					c1.22-0.68,2.67-1.01,4.32-1.01s3.08,0.29,4.27,0.86c1.19,0.58,2.1,1.38,2.74,2.42c0.64,1.04,0.96,2.26,0.96,3.65
					c0,0.95-0.16,1.82-0.48,2.62c-0.32,0.8-0.85,1.65-1.58,2.56c-0.73,0.91-1.71,2.01-2.94,3.3l-3.48,3.69l0.03,0.08h4.58l0.24-1.92
					h4.17v6.13H85.74z"/>
			</g>
			<path class="st0" d="M102.05,22.45h-4.17l-0.24,1.92h-4.58l-0.03-0.08l3.48-3.69c1.23-1.29,2.2-2.39,2.94-3.3
				c0.73-0.91,1.26-1.76,1.58-2.56c0.32-0.8,0.48-1.67,0.48-2.62c0-1.39-0.32-2.61-0.96-3.65c-0.64-1.04-1.55-1.85-2.74-2.42
				c-1.19-0.58-2.61-0.86-4.27-0.86s-3.1,0.34-4.32,1.01c-1.23,0.68-2.16,1.59-2.81,2.74c-0.65,1.15-0.96,2.44-0.93,3.87l0.03,0.1
				h5.43c0-1.05,0.21-1.88,0.63-2.49c0.42-0.62,1.07-0.93,1.95-0.93c0.8,0,1.4,0.26,1.81,0.78c0.4,0.52,0.6,1.16,0.6,1.91
				c0,0.45-0.09,0.92-0.26,1.41c-0.17,0.49-0.46,1.02-0.85,1.6c-0.39,0.58-0.92,1.25-1.58,2.01l-5.74,6.05
				c-0.01,0.11-0.03,0.21-0.06,0.3c0.04,0.06,0.08,0.14,0.11,0.24c0.16,0.45,0.12,0.91-0.12,1.27c-0.05,0.08-0.11,0.16-0.18,0.22
				c-0.07,0.13-0.15,0.25-0.26,0.36c0.19,0.35,0.19,0.77,0.01,1.14c-0.03,0.07-0.07,0.13-0.11,0.19c0.09,0.06,0.17,0.13,0.21,0.17
				c0.28,0.25,0.51,0.66,0.49,1.04c0,0.14-0.04,0.28-0.08,0.41h14.52V22.45z"/>
			<g>
				<path class="st0" d="M4.3,33.41v0.74H1.09v2.22h2.6v0.71h-2.6v2.28H4.3v0.74H0.18v-6.68H4.3z"/>
				<path class="st0" d="M6.25,33.22v6.87H5.42v-6.87H6.25z"/>
				<path class="st0" d="M9.44,35.29c0.28,0,0.54,0.05,0.78,0.14c0.24,0.09,0.45,0.23,0.62,0.41c0.17,0.18,0.31,0.4,0.41,0.66
					c0.1,0.26,0.15,0.56,0.15,0.9c0,0.13-0.01,0.22-0.04,0.26c-0.03,0.04-0.08,0.07-0.16,0.07H8.06c0.01,0.3,0.05,0.56,0.12,0.78
					s0.18,0.4,0.31,0.55c0.13,0.15,0.29,0.26,0.47,0.33c0.18,0.07,0.38,0.11,0.61,0.11c0.21,0,0.39-0.02,0.54-0.07
					c0.15-0.05,0.28-0.1,0.39-0.16c0.11-0.06,0.2-0.11,0.27-0.16c0.07-0.05,0.14-0.07,0.19-0.07c0.07,0,0.12,0.03,0.16,0.08
					l0.23,0.3c-0.1,0.12-0.23,0.23-0.37,0.32c-0.14,0.09-0.3,0.17-0.46,0.23c-0.16,0.06-0.33,0.1-0.51,0.13
					c-0.17,0.03-0.35,0.04-0.52,0.04c-0.33,0-0.63-0.06-0.9-0.17c-0.27-0.11-0.51-0.27-0.71-0.48c-0.2-0.21-0.36-0.48-0.47-0.79
					c-0.11-0.31-0.17-0.67-0.17-1.08c0-0.33,0.05-0.64,0.15-0.92c0.1-0.29,0.25-0.53,0.44-0.74c0.19-0.21,0.42-0.37,0.69-0.49
					C8.79,35.35,9.1,35.29,9.44,35.29z M9.46,35.9c-0.4,0-0.72,0.12-0.95,0.35c-0.23,0.23-0.37,0.55-0.43,0.96h2.57
					c0-0.19-0.03-0.37-0.08-0.53c-0.05-0.16-0.13-0.3-0.23-0.41c-0.1-0.12-0.23-0.21-0.38-0.27C9.82,35.94,9.65,35.9,9.46,35.9z"/>
				<path class="st0" d="M15.54,36.21c-0.02,0.03-0.05,0.06-0.07,0.08c-0.03,0.02-0.06,0.03-0.11,0.03c-0.05,0-0.1-0.02-0.15-0.06
					c-0.05-0.04-0.12-0.08-0.21-0.13c-0.08-0.05-0.19-0.09-0.31-0.13c-0.12-0.04-0.27-0.06-0.44-0.06c-0.23,0-0.43,0.04-0.61,0.12
					c-0.18,0.08-0.33,0.2-0.44,0.36c-0.12,0.16-0.21,0.34-0.27,0.56c-0.06,0.22-0.09,0.47-0.09,0.74c0,0.29,0.03,0.54,0.1,0.76
					c0.07,0.22,0.16,0.41,0.28,0.56c0.12,0.15,0.26,0.27,0.43,0.34c0.17,0.08,0.36,0.12,0.57,0.12c0.2,0,0.37-0.02,0.5-0.07
					c0.13-0.05,0.24-0.1,0.33-0.16c0.09-0.06,0.16-0.11,0.21-0.16c0.06-0.05,0.11-0.07,0.17-0.07c0.07,0,0.12,0.03,0.16,0.08
					l0.23,0.3c-0.21,0.25-0.46,0.44-0.77,0.55c-0.31,0.12-0.63,0.17-0.97,0.17c-0.3,0-0.57-0.05-0.82-0.16
					c-0.25-0.11-0.47-0.27-0.66-0.47c-0.19-0.21-0.33-0.46-0.44-0.76c-0.11-0.3-0.16-0.64-0.16-1.03c0-0.35,0.05-0.68,0.15-0.97
					c0.1-0.3,0.24-0.56,0.43-0.77c0.19-0.22,0.42-0.38,0.7-0.51c0.28-0.12,0.59-0.18,0.95-0.18c0.33,0,0.62,0.05,0.88,0.16
					c0.25,0.11,0.48,0.26,0.68,0.45L15.54,36.21z"/>
				<path class="st0" d="M19.75,36.21c-0.02,0.03-0.05,0.06-0.07,0.08c-0.03,0.02-0.06,0.03-0.11,0.03c-0.05,0-0.1-0.02-0.15-0.06
					s-0.12-0.08-0.21-0.13c-0.08-0.05-0.19-0.09-0.31-0.13c-0.12-0.04-0.27-0.06-0.44-0.06c-0.23,0-0.43,0.04-0.61,0.12
					c-0.18,0.08-0.33,0.2-0.44,0.36c-0.12,0.16-0.21,0.34-0.27,0.56c-0.06,0.22-0.09,0.47-0.09,0.74c0,0.29,0.03,0.54,0.1,0.76
					c0.07,0.22,0.16,0.41,0.28,0.56c0.12,0.15,0.26,0.27,0.43,0.34c0.17,0.08,0.36,0.12,0.57,0.12c0.2,0,0.37-0.02,0.5-0.07
					c0.13-0.05,0.24-0.1,0.33-0.16c0.09-0.06,0.16-0.11,0.21-0.16c0.06-0.05,0.11-0.07,0.17-0.07c0.07,0,0.12,0.03,0.16,0.08
					l0.23,0.3c-0.21,0.25-0.46,0.44-0.77,0.55c-0.31,0.12-0.63,0.17-0.97,0.17c-0.3,0-0.57-0.05-0.82-0.16
					c-0.25-0.11-0.47-0.27-0.66-0.47c-0.19-0.21-0.33-0.46-0.44-0.76c-0.11-0.3-0.16-0.64-0.16-1.03c0-0.35,0.05-0.68,0.15-0.97
					s0.24-0.56,0.43-0.77c0.19-0.22,0.42-0.38,0.7-0.51c0.28-0.12,0.59-0.18,0.95-0.18c0.33,0,0.62,0.05,0.88,0.16
					c0.25,0.11,0.48,0.26,0.68,0.45L19.75,36.21z"/>
				<path class="st0" d="M21.86,33.89c0,0.08-0.02,0.16-0.05,0.23c-0.03,0.07-0.08,0.13-0.13,0.19c-0.05,0.05-0.12,0.1-0.19,0.13
					c-0.07,0.03-0.15,0.05-0.23,0.05s-0.16-0.02-0.23-0.05c-0.07-0.03-0.13-0.07-0.19-0.13c-0.05-0.05-0.1-0.12-0.13-0.19
					c-0.03-0.07-0.05-0.15-0.05-0.23s0.02-0.16,0.05-0.23c0.03-0.07,0.07-0.14,0.13-0.19c0.05-0.05,0.12-0.1,0.19-0.13
					c0.07-0.03,0.15-0.05,0.23-0.05s0.16,0.02,0.23,0.05c0.07,0.03,0.13,0.07,0.19,0.13c0.05,0.05,0.1,0.12,0.13,0.19
					C21.84,33.73,21.86,33.8,21.86,33.89z M21.67,35.37v4.72h-0.83v-4.72H21.67z"/>
				<path class="st0" d="M24.91,35.29c0.34,0,0.66,0.06,0.93,0.17s0.51,0.28,0.71,0.49c0.19,0.21,0.34,0.47,0.45,0.77
					c0.1,0.3,0.16,0.63,0.16,1c0,0.37-0.05,0.71-0.16,1.01c-0.1,0.3-0.25,0.55-0.45,0.76c-0.19,0.21-0.43,0.37-0.71,0.49
					c-0.28,0.11-0.59,0.17-0.93,0.17s-0.66-0.06-0.93-0.17c-0.28-0.11-0.51-0.28-0.71-0.49c-0.2-0.21-0.35-0.47-0.45-0.76
					c-0.11-0.3-0.16-0.63-0.16-1.01c0-0.37,0.05-0.7,0.16-1c0.11-0.3,0.26-0.56,0.45-0.77c0.2-0.21,0.43-0.37,0.71-0.49
					S24.56,35.29,24.91,35.29z M24.91,39.51c0.47,0,0.81-0.16,1.04-0.47c0.23-0.31,0.34-0.75,0.34-1.31c0-0.56-0.11-1-0.34-1.31
					c-0.23-0.31-0.58-0.47-1.04-0.47c-0.24,0-0.44,0.04-0.62,0.12c-0.17,0.08-0.32,0.2-0.44,0.35c-0.12,0.15-0.2,0.34-0.26,0.56
					c-0.06,0.22-0.09,0.47-0.09,0.75c0,0.28,0.03,0.53,0.09,0.75c0.06,0.22,0.14,0.41,0.26,0.56c0.12,0.15,0.26,0.27,0.44,0.35
					C24.46,39.47,24.67,39.51,24.91,39.51z"/>
				<path class="st0" d="M28.04,40.09v-4.72h0.49c0.12,0,0.19,0.06,0.22,0.17l0.07,0.51c0.2-0.23,0.43-0.41,0.69-0.55
					c0.25-0.14,0.55-0.21,0.88-0.21c0.26,0,0.49,0.04,0.68,0.13c0.2,0.09,0.36,0.21,0.49,0.36c0.13,0.16,0.23,0.35,0.3,0.57
					c0.07,0.22,0.1,0.46,0.1,0.73v3.01h-0.83v-3.01c0-0.36-0.08-0.63-0.24-0.83c-0.16-0.2-0.41-0.3-0.75-0.3
					c-0.25,0-0.47,0.06-0.69,0.18c-0.21,0.12-0.41,0.28-0.59,0.48v3.48H28.04z"/>
				<path class="st0" d="M34.95,35.29c0.28,0,0.54,0.05,0.78,0.14c0.24,0.09,0.45,0.23,0.62,0.41c0.17,0.18,0.31,0.4,0.41,0.66
					c0.1,0.26,0.15,0.56,0.15,0.9c0,0.13-0.01,0.22-0.04,0.26c-0.03,0.04-0.08,0.07-0.16,0.07h-3.14c0.01,0.3,0.05,0.56,0.12,0.78
					s0.18,0.4,0.31,0.55c0.13,0.15,0.29,0.26,0.47,0.33c0.18,0.07,0.38,0.11,0.61,0.11c0.21,0,0.39-0.02,0.54-0.07
					c0.15-0.05,0.28-0.1,0.39-0.16c0.11-0.06,0.2-0.11,0.27-0.16c0.07-0.05,0.14-0.07,0.19-0.07c0.07,0,0.12,0.03,0.16,0.08
					l0.23,0.3c-0.1,0.12-0.23,0.23-0.37,0.32c-0.14,0.09-0.3,0.17-0.46,0.23c-0.16,0.06-0.33,0.1-0.51,0.13
					c-0.17,0.03-0.35,0.04-0.52,0.04c-0.33,0-0.63-0.06-0.9-0.17c-0.27-0.11-0.51-0.27-0.71-0.48c-0.2-0.21-0.36-0.48-0.47-0.79
					c-0.11-0.31-0.17-0.67-0.17-1.08c0-0.33,0.05-0.64,0.15-0.92c0.1-0.29,0.25-0.53,0.44-0.74c0.19-0.21,0.42-0.37,0.69-0.49
					C34.3,35.35,34.61,35.29,34.95,35.29z M34.97,35.9c-0.4,0-0.72,0.12-0.95,0.35c-0.23,0.23-0.37,0.55-0.43,0.96h2.57
					c0-0.19-0.03-0.37-0.08-0.53c-0.05-0.16-0.13-0.3-0.23-0.41c-0.1-0.12-0.23-0.21-0.38-0.27C35.33,35.94,35.16,35.9,34.97,35.9z"
					/>
				<path class="st0" d="M40.53,36.15c-0.04,0.07-0.09,0.1-0.17,0.1c-0.05,0-0.1-0.02-0.16-0.05c-0.06-0.03-0.13-0.07-0.22-0.11
					c-0.08-0.04-0.19-0.08-0.31-0.12c-0.12-0.04-0.26-0.05-0.42-0.05c-0.14,0-0.27,0.02-0.38,0.05c-0.11,0.04-0.21,0.08-0.29,0.15
					c-0.08,0.06-0.14,0.13-0.18,0.22c-0.04,0.08-0.06,0.17-0.06,0.27c0,0.12,0.04,0.22,0.1,0.3c0.07,0.08,0.16,0.15,0.28,0.21
					c0.11,0.06,0.25,0.11,0.39,0.16c0.15,0.05,0.3,0.09,0.45,0.14c0.15,0.05,0.3,0.11,0.45,0.17c0.15,0.06,0.28,0.14,0.39,0.23
					c0.11,0.09,0.21,0.21,0.28,0.34c0.07,0.14,0.1,0.3,0.1,0.49c0,0.22-0.04,0.42-0.12,0.6c-0.08,0.18-0.19,0.34-0.34,0.48
					c-0.15,0.14-0.34,0.24-0.56,0.32c-0.22,0.08-0.48,0.12-0.76,0.12c-0.33,0-0.63-0.05-0.9-0.16c-0.27-0.11-0.49-0.24-0.68-0.41
					l0.2-0.32c0.03-0.04,0.05-0.07,0.09-0.09c0.03-0.02,0.08-0.03,0.14-0.03c0.06,0,0.11,0.02,0.18,0.07
					c0.06,0.04,0.14,0.09,0.23,0.14c0.09,0.05,0.2,0.1,0.32,0.14c0.13,0.04,0.28,0.07,0.47,0.07c0.16,0,0.3-0.02,0.42-0.06
					c0.12-0.04,0.22-0.1,0.3-0.17c0.08-0.07,0.14-0.15,0.18-0.25c0.04-0.09,0.06-0.19,0.06-0.3c0-0.13-0.04-0.24-0.1-0.32
					c-0.07-0.09-0.16-0.16-0.28-0.22c-0.11-0.06-0.25-0.11-0.39-0.16c-0.15-0.04-0.3-0.09-0.45-0.14c-0.15-0.05-0.3-0.11-0.45-0.17
					c-0.15-0.06-0.28-0.14-0.39-0.24s-0.21-0.22-0.28-0.36c-0.07-0.14-0.1-0.31-0.1-0.52c0-0.18,0.04-0.35,0.11-0.52
					c0.08-0.17,0.18-0.31,0.33-0.44c0.14-0.13,0.32-0.23,0.53-0.3c0.21-0.07,0.45-0.11,0.71-0.11c0.31,0,0.59,0.05,0.84,0.15
					c0.25,0.1,0.46,0.23,0.64,0.4L40.53,36.15z"/>
				<path class="st0" d="M46.92,37.91c0.03,0.08,0.06,0.17,0.09,0.25c0.03-0.09,0.06-0.17,0.1-0.25c0.03-0.08,0.07-0.16,0.12-0.24
					l2.26-4.11c0.04-0.07,0.08-0.11,0.13-0.13c0.04-0.02,0.11-0.02,0.19-0.02h0.67v6.68h-0.79v-4.91c0-0.07,0-0.14,0-0.21
					c0-0.07,0.01-0.15,0.01-0.23l-2.29,4.18c-0.08,0.14-0.19,0.21-0.33,0.21h-0.13c-0.14,0-0.25-0.07-0.33-0.21l-2.34-4.19
					c0.01,0.08,0.02,0.16,0.02,0.24c0,0.08,0.01,0.15,0.01,0.21v4.91h-0.79v-6.68h0.67c0.08,0,0.14,0.01,0.19,0.02
					c0.04,0.02,0.08,0.06,0.13,0.13l2.31,4.11C46.85,37.75,46.89,37.83,46.92,37.91z"/>
				<path class="st0" d="M52.55,35.37v3.01c0,0.36,0.08,0.63,0.25,0.83c0.17,0.2,0.41,0.29,0.75,0.29c0.24,0,0.47-0.06,0.68-0.17
					c0.21-0.12,0.41-0.28,0.59-0.48v-3.48h0.83v4.72h-0.49c-0.12,0-0.19-0.06-0.22-0.17l-0.07-0.51c-0.2,0.23-0.43,0.41-0.69,0.55
					c-0.25,0.14-0.55,0.21-0.88,0.21c-0.26,0-0.49-0.04-0.68-0.13c-0.2-0.09-0.36-0.21-0.5-0.36c-0.13-0.16-0.23-0.34-0.3-0.56
					c-0.07-0.22-0.1-0.46-0.1-0.73v-3.01H52.55z"/>
				<path class="st0" d="M56.87,40.09v-4.72h0.49c0.12,0,0.19,0.06,0.22,0.17l0.07,0.51c0.2-0.23,0.43-0.41,0.69-0.55
					c0.25-0.14,0.55-0.21,0.88-0.21c0.26,0,0.49,0.04,0.68,0.13c0.2,0.09,0.36,0.21,0.49,0.36c0.13,0.16,0.23,0.35,0.3,0.57
					c0.07,0.22,0.1,0.46,0.1,0.73v3.01h-0.83v-3.01c0-0.36-0.08-0.63-0.24-0.83c-0.16-0.2-0.41-0.3-0.75-0.3
					c-0.25,0-0.47,0.06-0.69,0.18c-0.21,0.12-0.41,0.28-0.59,0.48v3.48H56.87z"/>
				<path class="st0" d="M63.02,33.89c0,0.08-0.02,0.16-0.05,0.23c-0.03,0.07-0.08,0.13-0.13,0.19c-0.05,0.05-0.12,0.1-0.19,0.13
					c-0.07,0.03-0.15,0.05-0.23,0.05s-0.16-0.02-0.23-0.05c-0.07-0.03-0.13-0.07-0.19-0.13s-0.1-0.12-0.13-0.19
					c-0.03-0.07-0.05-0.15-0.05-0.23s0.02-0.16,0.05-0.23c0.03-0.07,0.07-0.14,0.13-0.19c0.05-0.05,0.12-0.1,0.19-0.13
					c0.07-0.03,0.15-0.05,0.23-0.05s0.16,0.02,0.23,0.05c0.07,0.03,0.13,0.07,0.19,0.13c0.05,0.05,0.1,0.12,0.13,0.19
					C63.01,33.73,63.02,33.8,63.02,33.89z M62.84,35.37v4.72h-0.83v-4.72H62.84z"/>
				<path class="st0" d="M67.38,36.21c-0.02,0.03-0.05,0.06-0.07,0.08c-0.03,0.02-0.06,0.03-0.11,0.03c-0.05,0-0.1-0.02-0.15-0.06
					c-0.05-0.04-0.12-0.08-0.21-0.13c-0.08-0.05-0.19-0.09-0.31-0.13c-0.12-0.04-0.27-0.06-0.44-0.06c-0.23,0-0.43,0.04-0.61,0.12
					c-0.18,0.08-0.33,0.2-0.44,0.36c-0.12,0.16-0.21,0.34-0.27,0.56c-0.06,0.22-0.09,0.47-0.09,0.74c0,0.29,0.03,0.54,0.1,0.76
					c0.07,0.22,0.16,0.41,0.28,0.56c0.12,0.15,0.26,0.27,0.43,0.34c0.17,0.08,0.36,0.12,0.57,0.12c0.2,0,0.37-0.02,0.5-0.07
					c0.13-0.05,0.24-0.1,0.33-0.16c0.09-0.06,0.16-0.11,0.21-0.16c0.06-0.05,0.11-0.07,0.17-0.07c0.07,0,0.12,0.03,0.16,0.08
					l0.23,0.3c-0.21,0.25-0.46,0.44-0.77,0.55c-0.31,0.12-0.63,0.17-0.97,0.17c-0.3,0-0.57-0.05-0.82-0.16
					c-0.25-0.11-0.47-0.27-0.66-0.47c-0.19-0.21-0.33-0.46-0.44-0.76c-0.11-0.3-0.16-0.64-0.16-1.03c0-0.35,0.05-0.68,0.15-0.97
					s0.24-0.56,0.43-0.77c0.19-0.22,0.42-0.38,0.7-0.51c0.28-0.12,0.59-0.18,0.95-0.18c0.33,0,0.62,0.05,0.88,0.16
					c0.25,0.11,0.48,0.26,0.68,0.45L67.38,36.21z"/>
				<path class="st0" d="M69.48,33.89c0,0.08-0.02,0.16-0.05,0.23c-0.03,0.07-0.08,0.13-0.13,0.19c-0.05,0.05-0.12,0.1-0.19,0.13
					c-0.07,0.03-0.15,0.05-0.23,0.05c-0.08,0-0.16-0.02-0.23-0.05c-0.07-0.03-0.13-0.07-0.19-0.13c-0.05-0.05-0.1-0.12-0.13-0.19
					c-0.03-0.07-0.05-0.15-0.05-0.23s0.02-0.16,0.05-0.23c0.03-0.07,0.07-0.14,0.13-0.19c0.05-0.05,0.12-0.1,0.19-0.13
					c0.07-0.03,0.15-0.05,0.23-0.05c0.08,0,0.16,0.02,0.23,0.05c0.07,0.03,0.13,0.07,0.19,0.13c0.05,0.05,0.1,0.12,0.13,0.19
					C69.47,33.73,69.48,33.8,69.48,33.89z M69.3,35.37v4.72h-0.83v-4.72H69.3z"/>
				<path class="st0" d="M70.62,41.69v-6.32h0.49c0.12,0,0.19,0.06,0.22,0.17l0.07,0.56c0.2-0.25,0.43-0.44,0.69-0.59
					c0.26-0.15,0.56-0.22,0.9-0.22c0.27,0,0.52,0.05,0.74,0.16c0.22,0.1,0.41,0.26,0.56,0.46c0.16,0.2,0.27,0.46,0.36,0.76
					c0.08,0.3,0.13,0.65,0.13,1.04c0,0.35-0.05,0.67-0.14,0.97s-0.23,0.56-0.4,0.78c-0.17,0.22-0.39,0.39-0.64,0.52
					c-0.25,0.13-0.54,0.19-0.85,0.19c-0.29,0-0.54-0.05-0.75-0.14c-0.21-0.1-0.39-0.23-0.55-0.41v2.09H70.62z M72.72,35.95
					c-0.27,0-0.51,0.06-0.71,0.19c-0.2,0.12-0.39,0.3-0.56,0.53v2.28c0.15,0.21,0.32,0.35,0.5,0.43c0.18,0.08,0.38,0.13,0.61,0.13
					c0.44,0,0.77-0.16,1.01-0.47c0.24-0.31,0.35-0.76,0.35-1.34c0-0.31-0.03-0.57-0.08-0.79c-0.05-0.22-0.13-0.4-0.24-0.54
					c-0.1-0.14-0.23-0.24-0.38-0.31C73.08,35.99,72.91,35.95,72.72,35.95z"/>
				<path class="st0" d="M79.1,40.09h-0.37c-0.08,0-0.15-0.01-0.2-0.04c-0.05-0.03-0.08-0.08-0.1-0.16l-0.09-0.44
					c-0.12,0.11-0.25,0.21-0.36,0.3c-0.12,0.09-0.24,0.16-0.37,0.22c-0.13,0.06-0.27,0.11-0.42,0.14s-0.31,0.05-0.49,0.05
					c-0.18,0-0.35-0.03-0.51-0.08c-0.16-0.05-0.3-0.13-0.42-0.23c-0.12-0.1-0.21-0.23-0.28-0.39c-0.07-0.16-0.1-0.34-0.1-0.56
					c0-0.19,0.05-0.37,0.15-0.54c0.1-0.17,0.27-0.33,0.5-0.46c0.23-0.13,0.53-0.24,0.9-0.33s0.82-0.13,1.36-0.13v-0.37
					c0-0.37-0.08-0.65-0.24-0.84c-0.16-0.19-0.39-0.28-0.7-0.28c-0.2,0-0.37,0.03-0.51,0.08c-0.14,0.05-0.26,0.11-0.36,0.17
					c-0.1,0.06-0.19,0.12-0.26,0.17c-0.07,0.05-0.15,0.08-0.22,0.08c-0.06,0-0.1-0.01-0.15-0.04c-0.04-0.03-0.08-0.07-0.1-0.11
					l-0.15-0.27c0.26-0.25,0.54-0.44,0.84-0.56c0.3-0.12,0.64-0.19,1-0.19c0.26,0,0.5,0.04,0.7,0.13c0.21,0.09,0.38,0.21,0.52,0.36
					c0.14,0.16,0.25,0.34,0.32,0.56c0.07,0.22,0.11,0.46,0.11,0.73V40.09z M76.94,39.58c0.15,0,0.28-0.01,0.4-0.04
					c0.12-0.03,0.24-0.07,0.34-0.13c0.11-0.05,0.21-0.12,0.31-0.2c0.1-0.08,0.19-0.17,0.29-0.27v-0.97c-0.38,0-0.71,0.02-0.97,0.07
					c-0.27,0.05-0.48,0.11-0.65,0.19c-0.17,0.08-0.29,0.17-0.37,0.28c-0.08,0.11-0.11,0.22-0.11,0.36c0,0.13,0.02,0.23,0.06,0.32
					c0.04,0.09,0.09,0.17,0.16,0.22s0.15,0.1,0.24,0.13C76.73,39.57,76.83,39.58,76.94,39.58z"/>
				<path class="st0" d="M81.14,33.22v6.87h-0.83v-6.87H81.14z"/>
				<path class="st0" d="M84.33,35.29c0.28,0,0.54,0.05,0.78,0.14c0.24,0.09,0.45,0.23,0.62,0.41c0.17,0.18,0.31,0.4,0.41,0.66
					c0.1,0.26,0.15,0.56,0.15,0.9c0,0.13-0.01,0.22-0.04,0.26c-0.03,0.04-0.08,0.07-0.16,0.07h-3.14c0.01,0.3,0.05,0.56,0.12,0.78
					c0.07,0.22,0.18,0.4,0.31,0.55c0.13,0.15,0.29,0.26,0.47,0.33c0.18,0.07,0.38,0.11,0.61,0.11c0.21,0,0.39-0.02,0.54-0.07
					c0.15-0.05,0.28-0.1,0.39-0.16c0.11-0.06,0.2-0.11,0.27-0.16c0.07-0.05,0.14-0.07,0.19-0.07c0.07,0,0.12,0.03,0.16,0.08
					l0.23,0.3c-0.1,0.12-0.23,0.23-0.37,0.32c-0.14,0.09-0.3,0.17-0.46,0.23c-0.16,0.06-0.33,0.1-0.51,0.13
					c-0.17,0.03-0.35,0.04-0.52,0.04c-0.33,0-0.63-0.06-0.9-0.17c-0.27-0.11-0.51-0.27-0.71-0.48c-0.2-0.21-0.36-0.48-0.47-0.79
					c-0.11-0.31-0.17-0.67-0.17-1.08c0-0.33,0.05-0.64,0.15-0.92c0.1-0.29,0.25-0.53,0.44-0.74c0.19-0.21,0.42-0.37,0.69-0.49
					C83.68,35.35,83.99,35.29,84.33,35.29z M84.35,35.9c-0.4,0-0.72,0.12-0.95,0.35c-0.23,0.23-0.37,0.55-0.43,0.96h2.57
					c0-0.19-0.03-0.37-0.08-0.53c-0.05-0.16-0.13-0.3-0.23-0.41c-0.1-0.12-0.23-0.21-0.38-0.27C84.71,35.94,84.54,35.9,84.35,35.9z"
					/>
				<path class="st0" d="M89.91,36.15c-0.04,0.07-0.09,0.1-0.17,0.1c-0.05,0-0.1-0.02-0.16-0.05c-0.06-0.03-0.13-0.07-0.22-0.11
					c-0.08-0.04-0.19-0.08-0.31-0.12c-0.12-0.04-0.26-0.05-0.42-0.05c-0.14,0-0.27,0.02-0.38,0.05c-0.11,0.04-0.21,0.08-0.29,0.15
					c-0.08,0.06-0.14,0.13-0.18,0.22c-0.04,0.08-0.06,0.17-0.06,0.27c0,0.12,0.04,0.22,0.1,0.3c0.07,0.08,0.16,0.15,0.28,0.21
					c0.11,0.06,0.25,0.11,0.39,0.16c0.15,0.05,0.3,0.09,0.45,0.14c0.15,0.05,0.3,0.11,0.45,0.17s0.28,0.14,0.39,0.23
					c0.11,0.09,0.21,0.21,0.28,0.34c0.07,0.14,0.1,0.3,0.1,0.49c0,0.22-0.04,0.42-0.12,0.6c-0.08,0.18-0.19,0.34-0.34,0.48
					c-0.15,0.14-0.34,0.24-0.56,0.32c-0.22,0.08-0.48,0.12-0.76,0.12c-0.33,0-0.63-0.05-0.9-0.16c-0.27-0.11-0.49-0.24-0.68-0.41
					l0.2-0.32c0.03-0.04,0.05-0.07,0.09-0.09c0.03-0.02,0.08-0.03,0.14-0.03c0.06,0,0.11,0.02,0.18,0.07
					c0.06,0.04,0.14,0.09,0.23,0.14c0.09,0.05,0.2,0.1,0.32,0.14c0.13,0.04,0.28,0.07,0.47,0.07c0.16,0,0.3-0.02,0.42-0.06
					c0.12-0.04,0.22-0.1,0.3-0.17c0.08-0.07,0.14-0.15,0.18-0.25c0.04-0.09,0.06-0.19,0.06-0.3c0-0.13-0.04-0.24-0.1-0.32
					c-0.07-0.09-0.16-0.16-0.28-0.22c-0.11-0.06-0.25-0.11-0.39-0.16c-0.15-0.04-0.3-0.09-0.45-0.14c-0.15-0.05-0.3-0.11-0.45-0.17
					c-0.15-0.06-0.28-0.14-0.39-0.24c-0.11-0.1-0.21-0.22-0.28-0.36c-0.07-0.14-0.1-0.31-0.1-0.52c0-0.18,0.04-0.35,0.11-0.52
					c0.08-0.17,0.18-0.31,0.33-0.44c0.14-0.13,0.32-0.23,0.53-0.3c0.21-0.07,0.45-0.11,0.71-0.11c0.31,0,0.59,0.05,0.84,0.15
					c0.25,0.1,0.46,0.23,0.64,0.4L89.91,36.15z"/>
				<path class="st0" d="M97.61,38.71c0.05,0,0.09,0.02,0.14,0.06l0.35,0.39c-0.27,0.32-0.6,0.56-1,0.74
					c-0.39,0.18-0.86,0.27-1.41,0.27c-0.48,0-0.92-0.08-1.31-0.25c-0.39-0.17-0.73-0.4-1-0.7c-0.28-0.3-0.49-0.66-0.64-1.08
					c-0.15-0.42-0.23-0.88-0.23-1.38s0.08-0.97,0.25-1.38c0.16-0.42,0.39-0.78,0.69-1.08c0.3-0.3,0.65-0.54,1.06-0.7
					c0.41-0.17,0.87-0.25,1.36-0.25c0.49,0,0.91,0.08,1.27,0.23c0.36,0.15,0.67,0.36,0.95,0.62l-0.29,0.42
					c-0.02,0.03-0.05,0.06-0.07,0.08c-0.03,0.02-0.07,0.03-0.12,0.03c-0.04,0-0.08-0.01-0.13-0.04c-0.05-0.03-0.1-0.07-0.16-0.11
					c-0.06-0.04-0.14-0.09-0.22-0.14c-0.08-0.05-0.18-0.1-0.3-0.14c-0.11-0.04-0.25-0.08-0.4-0.11c-0.15-0.03-0.33-0.04-0.53-0.04
					c-0.36,0-0.68,0.06-0.98,0.18c-0.3,0.12-0.55,0.3-0.77,0.52c-0.21,0.23-0.38,0.5-0.5,0.83s-0.18,0.69-0.18,1.1
					c0,0.42,0.06,0.79,0.18,1.11s0.28,0.6,0.49,0.83c0.21,0.23,0.45,0.4,0.73,0.52s0.59,0.18,0.91,0.18c0.2,0,0.38-0.01,0.54-0.04
					c0.16-0.02,0.31-0.06,0.44-0.11c0.14-0.05,0.26-0.11,0.38-0.19c0.12-0.08,0.23-0.17,0.35-0.27
					C97.51,38.73,97.56,38.71,97.61,38.71z"/>
				<path class="st0" d="M100.93,35.29c0.34,0,0.66,0.06,0.93,0.17c0.28,0.12,0.51,0.28,0.71,0.49c0.19,0.21,0.34,0.47,0.45,0.77
					c0.1,0.3,0.16,0.63,0.16,1c0,0.37-0.05,0.71-0.16,1.01c-0.1,0.3-0.25,0.55-0.45,0.76c-0.19,0.21-0.43,0.37-0.71,0.49
					c-0.28,0.11-0.59,0.17-0.93,0.17s-0.66-0.06-0.93-0.17c-0.28-0.11-0.51-0.28-0.71-0.49c-0.2-0.21-0.35-0.47-0.45-0.76
					c-0.11-0.3-0.16-0.63-0.16-1.01c0-0.37,0.05-0.7,0.16-1c0.11-0.3,0.26-0.56,0.45-0.77c0.2-0.21,0.43-0.37,0.71-0.49
					C100.27,35.35,100.58,35.29,100.93,35.29z M100.93,39.51c0.47,0,0.81-0.16,1.04-0.47c0.23-0.31,0.34-0.75,0.34-1.31
					c0-0.56-0.11-1-0.34-1.31c-0.23-0.31-0.58-0.47-1.04-0.47c-0.24,0-0.44,0.04-0.62,0.12c-0.17,0.08-0.32,0.2-0.44,0.35
					c-0.12,0.15-0.2,0.34-0.26,0.56c-0.06,0.22-0.09,0.47-0.09,0.75c0,0.28,0.03,0.53,0.09,0.75c0.06,0.22,0.14,0.41,0.26,0.56
					c0.12,0.15,0.26,0.27,0.44,0.35C100.49,39.47,100.69,39.51,100.93,39.51z"/>
				<path class="st0" d="M104.06,40.09v-4.72h0.49c0.12,0,0.19,0.06,0.22,0.17l0.06,0.48c0.17-0.21,0.37-0.39,0.59-0.53
					c0.22-0.14,0.47-0.21,0.75-0.21c0.32,0,0.58,0.09,0.78,0.27c0.2,0.18,0.34,0.42,0.43,0.72c0.07-0.17,0.15-0.32,0.26-0.44
					c0.11-0.12,0.23-0.23,0.36-0.31s0.28-0.14,0.43-0.18c0.15-0.04,0.3-0.06,0.46-0.06c0.25,0,0.47,0.04,0.66,0.12
					c0.19,0.08,0.36,0.2,0.49,0.35c0.14,0.15,0.24,0.34,0.31,0.56c0.07,0.22,0.11,0.48,0.11,0.76v3.01h-0.83v-3.01
					c0-0.37-0.08-0.65-0.24-0.84c-0.16-0.19-0.4-0.29-0.7-0.29c-0.14,0-0.27,0.02-0.39,0.07c-0.12,0.05-0.23,0.12-0.32,0.21
					c-0.09,0.09-0.17,0.21-0.22,0.35c-0.05,0.14-0.08,0.31-0.08,0.49v3.01h-0.83v-3.01c0-0.38-0.08-0.66-0.23-0.85
					c-0.15-0.19-0.37-0.28-0.67-0.28c-0.21,0-0.4,0.06-0.57,0.17c-0.18,0.11-0.34,0.26-0.48,0.45v3.52H104.06z"/>
				<path class="st0" d="M111.58,41.69v-6.32h0.49c0.12,0,0.19,0.06,0.22,0.17l0.07,0.56c0.2-0.25,0.43-0.44,0.69-0.59
					c0.26-0.15,0.56-0.22,0.9-0.22c0.27,0,0.52,0.05,0.74,0.16c0.22,0.1,0.41,0.26,0.56,0.46c0.16,0.2,0.27,0.46,0.36,0.76
					c0.08,0.3,0.13,0.65,0.13,1.04c0,0.35-0.05,0.67-0.14,0.97c-0.09,0.3-0.23,0.56-0.4,0.78c-0.17,0.22-0.39,0.39-0.64,0.52
					c-0.25,0.13-0.54,0.19-0.85,0.19c-0.29,0-0.54-0.05-0.75-0.14c-0.21-0.1-0.39-0.23-0.55-0.41v2.09H111.58z M113.68,35.95
					c-0.27,0-0.51,0.06-0.71,0.19c-0.2,0.12-0.39,0.3-0.56,0.53v2.28c0.15,0.21,0.32,0.35,0.5,0.43c0.18,0.08,0.38,0.13,0.61,0.13
					c0.44,0,0.77-0.16,1.01-0.47c0.24-0.31,0.35-0.76,0.35-1.34c0-0.31-0.03-0.57-0.08-0.79c-0.05-0.22-0.13-0.4-0.24-0.54
					c-0.1-0.14-0.23-0.24-0.38-0.31C114.04,35.99,113.87,35.95,113.68,35.95z"/>
				<path class="st0" d="M117.5,33.22v6.87h-0.83v-6.87H117.5z"/>
				<path class="st0" d="M120.7,35.29c0.28,0,0.54,0.05,0.78,0.14c0.24,0.09,0.45,0.23,0.62,0.41c0.17,0.18,0.31,0.4,0.41,0.66
					c0.1,0.26,0.15,0.56,0.15,0.9c0,0.13-0.01,0.22-0.04,0.26c-0.03,0.04-0.08,0.07-0.16,0.07h-3.14c0.01,0.3,0.05,0.56,0.12,0.78
					s0.18,0.4,0.31,0.55c0.13,0.15,0.29,0.26,0.47,0.33c0.18,0.07,0.38,0.11,0.61,0.11c0.21,0,0.39-0.02,0.54-0.07
					c0.15-0.05,0.28-0.1,0.39-0.16c0.11-0.06,0.2-0.11,0.27-0.16c0.07-0.05,0.14-0.07,0.19-0.07c0.07,0,0.12,0.03,0.16,0.08
					l0.23,0.3c-0.1,0.12-0.23,0.23-0.37,0.32c-0.14,0.09-0.3,0.17-0.46,0.23c-0.16,0.06-0.33,0.1-0.51,0.13
					c-0.17,0.03-0.35,0.04-0.52,0.04c-0.33,0-0.63-0.06-0.9-0.17c-0.27-0.11-0.51-0.27-0.71-0.48c-0.2-0.21-0.36-0.48-0.47-0.79
					c-0.11-0.31-0.17-0.67-0.17-1.08c0-0.33,0.05-0.64,0.15-0.92c0.1-0.29,0.25-0.53,0.44-0.74c0.19-0.21,0.42-0.37,0.69-0.49
					C120.05,35.35,120.36,35.29,120.7,35.29z M120.72,35.9c-0.4,0-0.72,0.12-0.95,0.35c-0.23,0.23-0.37,0.55-0.43,0.96h2.57
					c0-0.19-0.03-0.37-0.08-0.53c-0.05-0.16-0.13-0.3-0.23-0.41c-0.1-0.12-0.23-0.21-0.38-0.27
					C121.07,35.94,120.91,35.9,120.72,35.9z"/>
				<path class="st0" d="M123.57,40.09v-4.72h0.49c0.12,0,0.19,0.06,0.22,0.17l0.06,0.48c0.17-0.21,0.37-0.39,0.59-0.53
					c0.22-0.14,0.47-0.21,0.75-0.21c0.32,0,0.58,0.09,0.78,0.27c0.2,0.18,0.34,0.42,0.43,0.72c0.07-0.17,0.15-0.32,0.26-0.44
					c0.11-0.12,0.23-0.23,0.36-0.31c0.13-0.08,0.28-0.14,0.43-0.18c0.15-0.04,0.3-0.06,0.46-0.06c0.25,0,0.47,0.04,0.66,0.12
					c0.19,0.08,0.36,0.2,0.49,0.35c0.14,0.15,0.24,0.34,0.31,0.56c0.07,0.22,0.11,0.48,0.11,0.76v3.01h-0.83v-3.01
					c0-0.37-0.08-0.65-0.24-0.84c-0.16-0.19-0.4-0.29-0.7-0.29c-0.14,0-0.27,0.02-0.39,0.07c-0.12,0.05-0.23,0.12-0.32,0.21
					c-0.09,0.09-0.17,0.21-0.22,0.35c-0.05,0.14-0.08,0.31-0.08,0.49v3.01h-0.83v-3.01c0-0.38-0.08-0.66-0.23-0.85
					c-0.15-0.19-0.37-0.28-0.67-0.28c-0.21,0-0.4,0.06-0.57,0.17c-0.18,0.11-0.34,0.26-0.48,0.45v3.52H123.57z"/>
				<path class="st0" d="M132.96,35.29c0.28,0,0.54,0.05,0.78,0.14c0.24,0.09,0.45,0.23,0.62,0.41c0.17,0.18,0.31,0.4,0.41,0.66
					c0.1,0.26,0.15,0.56,0.15,0.9c0,0.13-0.01,0.22-0.04,0.26c-0.03,0.04-0.08,0.07-0.16,0.07h-3.14c0.01,0.3,0.05,0.56,0.12,0.78
					c0.07,0.22,0.18,0.4,0.31,0.55c0.13,0.15,0.29,0.26,0.47,0.33c0.18,0.07,0.38,0.11,0.61,0.11c0.21,0,0.39-0.02,0.54-0.07
					c0.15-0.05,0.28-0.1,0.39-0.16c0.11-0.06,0.2-0.11,0.27-0.16c0.07-0.05,0.14-0.07,0.19-0.07c0.07,0,0.12,0.03,0.16,0.08
					l0.23,0.3c-0.1,0.12-0.23,0.23-0.37,0.32c-0.14,0.09-0.3,0.17-0.46,0.23c-0.16,0.06-0.33,0.1-0.51,0.13
					c-0.17,0.03-0.35,0.04-0.52,0.04c-0.33,0-0.63-0.06-0.9-0.17c-0.27-0.11-0.51-0.27-0.71-0.48c-0.2-0.21-0.36-0.48-0.47-0.79
					c-0.11-0.31-0.17-0.67-0.17-1.08c0-0.33,0.05-0.64,0.15-0.92c0.1-0.29,0.25-0.53,0.44-0.74c0.19-0.21,0.42-0.37,0.69-0.49
					C132.31,35.35,132.61,35.29,132.96,35.29z M132.97,35.9c-0.4,0-0.72,0.12-0.95,0.35c-0.23,0.23-0.37,0.55-0.43,0.96h2.57
					c0-0.19-0.03-0.37-0.08-0.53c-0.05-0.16-0.13-0.3-0.23-0.41c-0.1-0.12-0.23-0.21-0.38-0.27
					C133.33,35.94,133.16,35.9,132.97,35.9z"/>
				<path class="st0" d="M135.83,40.09v-4.72h0.49c0.12,0,0.19,0.06,0.22,0.17l0.07,0.51c0.2-0.23,0.43-0.41,0.69-0.55
					c0.25-0.14,0.55-0.21,0.88-0.21c0.26,0,0.49,0.04,0.68,0.13c0.2,0.09,0.36,0.21,0.49,0.36c0.13,0.16,0.23,0.35,0.3,0.57
					c0.07,0.22,0.1,0.46,0.1,0.73v3.01h-0.83v-3.01c0-0.36-0.08-0.63-0.24-0.83c-0.16-0.2-0.41-0.3-0.75-0.3
					c-0.25,0-0.47,0.06-0.69,0.18c-0.21,0.12-0.41,0.28-0.59,0.48v3.48H135.83z"/>
				<path class="st0" d="M142.31,40.16c-0.37,0-0.66-0.1-0.86-0.31c-0.2-0.21-0.3-0.51-0.3-0.9v-2.89h-0.57
					c-0.05,0-0.09-0.01-0.13-0.04c-0.03-0.03-0.05-0.08-0.05-0.14v-0.33l0.77-0.1l0.19-1.46c0.01-0.05,0.03-0.08,0.06-0.11
					c0.03-0.03,0.08-0.04,0.13-0.04h0.42v1.63h1.35v0.6h-1.35v2.83c0,0.2,0.05,0.35,0.14,0.44c0.1,0.1,0.22,0.14,0.37,0.14
					c0.09,0,0.16-0.01,0.23-0.03c0.06-0.02,0.12-0.05,0.17-0.08c0.05-0.03,0.09-0.05,0.12-0.08c0.03-0.02,0.06-0.04,0.09-0.04
					c0.04,0,0.08,0.03,0.12,0.08l0.24,0.4c-0.14,0.13-0.32,0.24-0.52,0.31S142.52,40.16,142.31,40.16z"/>
				<path class="st0" d="M147.68,40.09h-0.37c-0.08,0-0.15-0.01-0.2-0.04c-0.05-0.03-0.08-0.08-0.1-0.16l-0.09-0.44
					c-0.12,0.11-0.25,0.21-0.36,0.3c-0.12,0.09-0.24,0.16-0.37,0.22c-0.13,0.06-0.27,0.11-0.42,0.14s-0.31,0.05-0.49,0.05
					c-0.18,0-0.35-0.03-0.51-0.08c-0.16-0.05-0.3-0.13-0.42-0.23c-0.12-0.1-0.21-0.23-0.28-0.39c-0.07-0.16-0.1-0.34-0.1-0.56
					c0-0.19,0.05-0.37,0.15-0.54s0.27-0.33,0.5-0.46c0.23-0.13,0.53-0.24,0.9-0.33c0.37-0.09,0.82-0.13,1.36-0.13v-0.37
					c0-0.37-0.08-0.65-0.24-0.84c-0.16-0.19-0.39-0.28-0.7-0.28c-0.2,0-0.37,0.03-0.51,0.08c-0.14,0.05-0.26,0.11-0.36,0.17
					c-0.1,0.06-0.19,0.12-0.26,0.17c-0.07,0.05-0.15,0.08-0.22,0.08c-0.06,0-0.1-0.01-0.15-0.04c-0.04-0.03-0.08-0.07-0.1-0.11
					l-0.15-0.27c0.26-0.25,0.54-0.44,0.84-0.56c0.3-0.12,0.64-0.19,1-0.19c0.26,0,0.5,0.04,0.7,0.13c0.21,0.09,0.38,0.21,0.52,0.36
					c0.14,0.16,0.25,0.34,0.32,0.56c0.07,0.22,0.11,0.46,0.11,0.73V40.09z M145.53,39.58c0.15,0,0.28-0.01,0.4-0.04
					c0.12-0.03,0.24-0.07,0.34-0.13c0.11-0.05,0.21-0.12,0.31-0.2c0.1-0.08,0.19-0.17,0.29-0.27v-0.97c-0.38,0-0.71,0.02-0.97,0.07
					c-0.27,0.05-0.48,0.11-0.65,0.19c-0.17,0.08-0.29,0.17-0.37,0.28c-0.08,0.11-0.11,0.22-0.11,0.36c0,0.13,0.02,0.23,0.06,0.32
					c0.04,0.09,0.09,0.17,0.16,0.22c0.07,0.06,0.15,0.1,0.24,0.13C145.32,39.57,145.42,39.58,145.53,39.58z"/>
				<path class="st0" d="M148.8,40.09v-4.72h0.48c0.09,0,0.15,0.02,0.19,0.05c0.03,0.03,0.06,0.09,0.07,0.18l0.06,0.74
					c0.16-0.33,0.36-0.59,0.6-0.77c0.24-0.18,0.52-0.28,0.84-0.28c0.13,0,0.25,0.01,0.35,0.04c0.11,0.03,0.2,0.07,0.29,0.12
					l-0.11,0.62c-0.02,0.08-0.07,0.12-0.14,0.12c-0.04,0-0.11-0.01-0.2-0.04c-0.09-0.03-0.22-0.04-0.38-0.04
					c-0.29,0-0.53,0.08-0.73,0.25c-0.19,0.17-0.36,0.41-0.49,0.73v3.01H148.8z"/>
				<path class="st0" d="M153.53,33.89c0,0.08-0.02,0.16-0.05,0.23c-0.03,0.07-0.08,0.13-0.13,0.19c-0.05,0.05-0.12,0.1-0.19,0.13
					c-0.07,0.03-0.15,0.05-0.23,0.05c-0.08,0-0.16-0.02-0.23-0.05c-0.07-0.03-0.13-0.07-0.19-0.13s-0.1-0.12-0.13-0.19
					c-0.03-0.07-0.05-0.15-0.05-0.23s0.02-0.16,0.05-0.23c0.03-0.07,0.07-0.14,0.13-0.19c0.05-0.05,0.12-0.1,0.19-0.13
					c0.07-0.03,0.15-0.05,0.23-0.05c0.08,0,0.16,0.02,0.23,0.05c0.07,0.03,0.13,0.07,0.19,0.13c0.05,0.05,0.1,0.12,0.13,0.19
					C153.51,33.73,153.53,33.8,153.53,33.89z M153.34,35.37v4.72h-0.83v-4.72H153.34z"/>
				<path class="st0" d="M158.13,40.09h-0.37c-0.08,0-0.15-0.01-0.2-0.04c-0.05-0.03-0.08-0.08-0.1-0.16l-0.09-0.44
					c-0.12,0.11-0.25,0.21-0.36,0.3c-0.12,0.09-0.24,0.16-0.37,0.22c-0.13,0.06-0.27,0.11-0.42,0.14s-0.31,0.05-0.49,0.05
					c-0.18,0-0.35-0.03-0.51-0.08c-0.16-0.05-0.3-0.13-0.42-0.23c-0.12-0.1-0.21-0.23-0.28-0.39c-0.07-0.16-0.1-0.34-0.1-0.56
					c0-0.19,0.05-0.37,0.15-0.54s0.27-0.33,0.5-0.46c0.23-0.13,0.53-0.24,0.9-0.33c0.37-0.09,0.82-0.13,1.36-0.13v-0.37
					c0-0.37-0.08-0.65-0.24-0.84c-0.16-0.19-0.39-0.28-0.7-0.28c-0.2,0-0.37,0.03-0.51,0.08c-0.14,0.05-0.26,0.11-0.36,0.17
					c-0.1,0.06-0.19,0.12-0.26,0.17c-0.07,0.05-0.15,0.08-0.22,0.08c-0.06,0-0.1-0.01-0.15-0.04c-0.04-0.03-0.08-0.07-0.1-0.11
					l-0.15-0.27c0.26-0.25,0.54-0.44,0.84-0.56c0.3-0.12,0.64-0.19,1-0.19c0.26,0,0.5,0.04,0.7,0.13c0.21,0.09,0.38,0.21,0.52,0.36
					c0.14,0.16,0.25,0.34,0.32,0.56c0.07,0.22,0.11,0.46,0.11,0.73V40.09z M155.98,39.58c0.15,0,0.28-0.01,0.4-0.04
					c0.12-0.03,0.24-0.07,0.34-0.13c0.11-0.05,0.21-0.12,0.31-0.2c0.1-0.08,0.19-0.17,0.29-0.27v-0.97c-0.38,0-0.71,0.02-0.97,0.07
					c-0.27,0.05-0.48,0.11-0.65,0.19c-0.17,0.08-0.29,0.17-0.37,0.28c-0.08,0.11-0.11,0.22-0.11,0.36c0,0.13,0.02,0.23,0.06,0.32
					c0.04,0.09,0.09,0.17,0.16,0.22c0.07,0.06,0.15,0.1,0.24,0.13C155.77,39.57,155.87,39.58,155.98,39.58z"/>
				<path class="st0" d="M161.95,36.15c-0.04,0.07-0.09,0.1-0.17,0.1c-0.05,0-0.1-0.02-0.16-0.05c-0.06-0.03-0.13-0.07-0.22-0.11
					c-0.08-0.04-0.19-0.08-0.31-0.12c-0.12-0.04-0.26-0.05-0.42-0.05c-0.14,0-0.27,0.02-0.38,0.05c-0.11,0.04-0.21,0.08-0.29,0.15
					c-0.08,0.06-0.14,0.13-0.18,0.22c-0.04,0.08-0.06,0.17-0.06,0.27c0,0.12,0.04,0.22,0.1,0.3c0.07,0.08,0.16,0.15,0.28,0.21
					c0.11,0.06,0.25,0.11,0.39,0.16c0.15,0.05,0.3,0.09,0.45,0.14c0.15,0.05,0.3,0.11,0.45,0.17s0.28,0.14,0.39,0.23
					c0.11,0.09,0.21,0.21,0.28,0.34c0.07,0.14,0.1,0.3,0.1,0.49c0,0.22-0.04,0.42-0.12,0.6s-0.19,0.34-0.34,0.48
					c-0.15,0.14-0.34,0.24-0.56,0.32c-0.22,0.08-0.48,0.12-0.76,0.12c-0.33,0-0.63-0.05-0.9-0.16c-0.27-0.11-0.49-0.24-0.68-0.41
					l0.2-0.32c0.03-0.04,0.05-0.07,0.09-0.09c0.03-0.02,0.08-0.03,0.14-0.03c0.06,0,0.11,0.02,0.18,0.07
					c0.06,0.04,0.14,0.09,0.23,0.14c0.09,0.05,0.2,0.1,0.32,0.14c0.13,0.04,0.28,0.07,0.47,0.07c0.16,0,0.3-0.02,0.42-0.06
					c0.12-0.04,0.22-0.1,0.3-0.17c0.08-0.07,0.14-0.15,0.18-0.25c0.04-0.09,0.06-0.19,0.06-0.3c0-0.13-0.04-0.24-0.1-0.32
					c-0.07-0.09-0.16-0.16-0.28-0.22c-0.11-0.06-0.25-0.11-0.39-0.16c-0.15-0.04-0.3-0.09-0.45-0.14c-0.15-0.05-0.3-0.11-0.45-0.17
					c-0.15-0.06-0.28-0.14-0.39-0.24s-0.21-0.22-0.28-0.36c-0.07-0.14-0.1-0.31-0.1-0.52c0-0.18,0.04-0.35,0.11-0.52
					c0.08-0.17,0.18-0.31,0.33-0.44c0.14-0.13,0.32-0.23,0.53-0.3c0.21-0.07,0.45-0.11,0.71-0.11c0.31,0,0.59,0.05,0.84,0.15
					c0.25,0.1,0.46,0.23,0.64,0.4L161.95,36.15z"/>
			</g>
			<g>
				<path class="st0" d="M114.5,5.34c-6.39,0-11.57,5.18-11.57,11.57s5.18,11.57,11.57,11.57c6.39,0,11.57-5.18,11.57-11.57
					S120.89,5.34,114.5,5.34z M114.5,23.76c-3.78,0-6.85-3.07-6.85-6.85s3.07-6.85,6.85-6.85c3.78,0,6.85,3.07,6.85,6.85
					S118.29,23.76,114.5,23.76z"/>
			</g>
		</g>
	</g>
	<g>
		<path class="st0" d="M151.56,28.58v-3.3l2.45-0.51v-1.9h-8.96l-0.37-2.62l9.36-15.09h5.6v14.19h2.28v3.52h-2.28v1.9l2.41,0.51v3.3
			H151.56z M149.7,19.34h4.31v-6.85l-0.1-0.03l-0.43,0.56L149.7,19.34z"/>
	</g>
	<path class="st0" d="M84.13,25.67c-0.26-0.57-0.57-1.11-0.98-1.6c-0.09-0.11-0.19-0.22-0.3-0.33c-0.03-0.03-0.05-0.06-0.06-0.09
		c-0.03-0.08-0.04-0.18-0.06-0.27c-0.02-0.09-0.08-0.16-0.16-0.19c-0.09-0.04-0.19-0.09-0.25-0.16c-0.02-0.03-0.03-0.06-0.04-0.1
		c-0.23-0.84,0.27-1.67,0.01-2.45c-0.59-1.64-2.3-2.56-3.42-4.01c-0.26-0.26-0.46-0.53-0.59-0.85c-0.07-0.13-0.33-0.2-0.39-0.33
		c-0.13-0.26-0.07-0.59-0.07-0.92c0-0.13-0.2-0.07-0.2-0.07c-0.72,0.07-1.12-0.59-1.51-1.05v0.2c0-0.39-0.39-0.53-0.46-0.85
		c-0.06-0.32,0.06-0.58,0.13-0.84c0-0.01,0-0.01,0.01-0.02c0.32-0.79-0.13-1.77,0.32-2.42c0.2-0.26,0.66,0.39,0.85,0.2
		c0.2-0.26,0.13-0.85,0-1.25c-0.13-0.46-0.33-0.85-0.53-1.31c-0.13-0.32-0.01-0.69-0.06-1.01c0-0.03-0.01-0.05-0.02-0.07
		c-0.13-0.33-0.37-0.76-0.18-0.95c0.53-0.46,0.92-1.05,0.66-1.71c-0.33-0.92-0.53-1.84-1.12-2.69c-0.09-0.13-0.18-0.26-0.27-0.38
		c-0.1-0.14-0.31-0.16-0.44-0.05c-0.05,0.04-0.09,0.09-0.15,0.16c-0.6,0.72-1.75,1.11-1.74,2.08c0,0.16-0.14,0.29-0.3,0.29h-0.02
		c-0.14,0-0.27,0.1-0.29,0.24c-0.04,0.25,0.04,0.56-0.11,0.76c-0.02,0.03-0.06,0.06-0.09,0.08c-0.4,0.22-0.89,0.3-1.29,0.21
		c-0.13-0.03-0.27,0.03-0.33,0.15c-0.06,0.11-0.12,0.22-0.17,0.33c-0.07,0.26-0.46,0.33-0.59,0.53c-0.46,0.53-0.92,0.99-1.45,1.51
		c-0.07,0.13-0.07,0.46,0.07,0.46c0.46,0.07,0.72,0.39,0.79,0.79c0.06,0.54,0.17,1.07,0.05,1.61c-0.02,0.1-0.1,0.17-0.19,0.2
		c-0.5,0.18-0.43,0.99-0.31,1.41c0.13,0.46,0.33,0.99,0.13,1.45c-0.05,0.16-0.15,0.33-0.26,0.49c-0.05,0.08-0.15,0.13-0.25,0.13
		c-0.06,0-0.12,0-0.15,0.03c-0.11,0.17-0.18,0.48-0.03,0.69c0.05,0.07,0.14,0.11,0.22,0.12c0.18,0,0.4-0.06,0.56-0.03
		c0.03,0.01,0.05,0.02,0.08,0.03c0.24,0.13,0.48,0.17,0.74,0.2c0.12,0.02,0.24,0.1,0.26,0.23c0.01,0.04,0.03,0.07,0.08,0.07
		c0.15,0,0.29,0,0.41,0.05c0.08,0.04,0.14,0.11,0.15,0.2c0.01,0.07,0.01,0.14,0.01,0.21c-0.01,0.13-0.1,0.23-0.23,0.26
		c-0.19,0.04-0.41,0.05-0.41,0.19c-0.06,0.52-0.32,0.89-0.52,1.29c-0.05,0.11-0.16,0.17-0.28,0.16c-0.63-0.02-1.22-0.38-1.85-0.34
		c-0.03,0-0.06,0.01-0.09,0.02c-0.23,0.08-0.36,0.33-0.48,0.58c-0.2,0.26,0.07,0.59-0.13,0.85c-0.13,0.13-0.13,0.39-0.07,0.59
		c0.13,0.33,0.66,0.33,0.72,0.66c0.08,0.27,0.11,0.55,0.16,0.81c0.1,0.49,0.64,0.77,1.1,0.57c0.62-0.27,1.39-0.36,1.99-0.01
		c0.02,0.01,0.04,0.02,0.06,0.04c0.25,0.21,0.36,0.65,0.17,1.03c-0.19,0.31-0.74-0.03-1.07,0.17c-0.03,0.02-0.06,0.05-0.08,0.07
		c-0.19,0.25-0.36,0.5-0.23,0.81c0.05,0.1,0.06,0.23,0.09,0.35c0.02,0.07,0.06,0.12,0.12,0.17c0.17,0.13,0.33,0.31,0.38,0.54h0.13
		c0.12,0.24,0.13,0.59,0.03,0.85c-0.02,0.05-0.05,0.09-0.09,0.12c-0.07,0.05-0.17,0.12-0.26,0.17c-0.04,0.02-0.07,0.05-0.1,0.09
		c-0.06,0.1-0.15,0.2-0.16,0.26c0,0.01,0,0.02-0.01,0.03c-0.26,0.65-0.26,1.44-0.06,2.09c0.06,0.19,0.44,0.26,0.7,0.32
		c0.02,0,0.03,0.01,0.05,0.01c0.51,0.2,0.9,0.59,1.29,0.98c0,0.07,0.07,0.2,0.07,0.33c0.26-0.07,0.46,0.13,0.53,0.33
		c0.1,0.31,0.08,0.66,0.07,1.01c-0.01,0.18,0.16,0.34,0.34,0.31c0.82-0.13,1.01-1.35,1.3-2.05c0-0.07,0.39,0,0.59,0.07
		c0.2,0.13,0.53,0,0.66,0.13c0.2,0.13,0.53,0.26,0.59,0.59c0,0.2,0.26,0.2,0.46,0.07c0-0.07,0.39,0.2,0.39,0.13
		c0,0,0.53-0.07,0.66,0.07c0.12,0.12,0.02,0.47,0.11,0.68c0.01,0.03,0.03,0.06,0.06,0.08c0.38,0.39,0.92,0.25,1.42,0.22
		c0.17-0.01,0.31,0.12,0.31,0.29c0,0.13,0.01,0.27,0.02,0.41c0.01,0.28,0.37,0.39,0.53,0.17c0.08-0.11,0.16-0.21,0.25-0.27
		c0.46-0.33,0.72-0.72,1.05-1.05c0.36-0.36,0.82-0.28,1.25-0.31c0.09-0.01,0.17-0.06,0.22-0.13c0.02-0.03,0.05-0.07,0.07-0.1
		c0.03-0.05,0.06-0.1,0.06-0.16c0.01-0.19-0.06-0.42,0.05-0.48c0.26-0.2,0.53-0.39,0.92-0.39c0.07,0,0.07-0.13,0.07-0.2
		c0.12-0.12,0.34-0.18,0.48-0.29c0.03-0.02,0.05-0.06,0.07-0.09c0.05-0.08,0.1-0.14,0.14-0.23c0.02-0.03,0.03-0.07,0.04-0.1
		C84.58,26.89,84.39,26.25,84.13,25.67z"/>
	<path class="st0" d="M64.09,22.54c-0.13-0.05-0.26-0.07-0.39-0.07c-0.16,0-0.32,0.04-0.47,0.11c-0.15,0.07-0.29,0.16-0.42,0.27
		c-0.32,0.28-0.65,0.52-0.96,0.71c-0.32,0.19-0.65,0.34-1.01,0.46c-0.35,0.12-0.73,0.2-1.14,0.25c-0.19,0.02-0.39,0.04-0.59,0.05
		c-0.1,0-0.21,0.01-0.32,0.01c-0.99,0-1.9-0.18-2.73-0.53c-0.82-0.35-1.53-0.85-2.12-1.51c-0.59-0.65-1.05-1.45-1.38-2.38
		c-0.3-0.83-0.46-1.76-0.49-2.78c0-0.12-0.01-0.24-0.01-0.36c0-0.12,0-0.24,0.01-0.36c0.03-1.02,0.19-1.94,0.49-2.78
		c0.33-0.93,0.79-1.72,1.38-2.38c0.59-0.65,1.29-1.16,2.12-1.51c0.82-0.35,1.73-0.53,2.73-0.53c0.11,0,0.21,0,0.32,0.01
		c0.21,0.01,0.4,0.03,0.59,0.05c0.41,0.05,0.79,0.13,1.14,0.25c0.35,0.12,0.69,0.27,1.01,0.46c0.32,0.19,0.64,0.42,0.96,0.71
		c0.13,0.11,0.27,0.2,0.42,0.27c0.15,0.07,0.31,0.11,0.47,0.11c0.13,0,0.26-0.02,0.39-0.07c0.13-0.05,0.25-0.13,0.37-0.25l2.17-2.29
		c-0.95-1.24-2.14-2.18-3.58-2.81c-1.12-0.5-2.41-0.79-3.86-0.9c-0.12-0.03-0.25-0.05-0.38-0.05c-0.14,0-0.28,0.01-0.42,0.01
		c-0.14,0-0.28-0.01-0.42-0.01c-1.8,0-3.4,0.31-4.83,0.92s-2.63,1.45-3.62,2.53c-0.99,1.08-1.75,2.35-2.28,3.83
		c-0.51,1.43-0.78,2.99-0.79,4.66c0,0.04,0,0.09,0,0.13c0,0,0,0.01,0,0.01s0,0.01,0,0.01c0,0.04,0,0.09,0,0.13
		c0.01,1.67,0.28,3.23,0.79,4.66c0.53,1.48,1.29,2.75,2.28,3.83c0.99,1.08,2.2,1.92,3.62,2.53s3.03,0.92,4.83,0.92
		c0.14,0,0.28-0.01,0.42-0.01c0.14,0,0.28,0.01,0.42,0.01c0.1,0,0.19-0.02,0.29-0.04c1.49-0.1,2.81-0.4,3.95-0.91
		c1.43-0.63,2.63-1.57,3.58-2.81l-2.17-2.29C64.35,22.67,64.22,22.58,64.09,22.54z"/>
</g>
</svg>
